<?xml version="1.0" encoding="UTF-8" standalone="no"?><svg width="112" height="165" viewBox="0 0 112 165" xmlns="http://www.w3.org/2000/svg"><title>chip-bags</title><g fill="none" fill-rule="evenodd"><path d="M4.26 2.445l-.99 10.868 11.05 29.712-7.218 12.9-.166 5.74-.21 42.854.08 6.137 5.317 23.778-9.896 16.275.37 5.074 6.348 2.763 2.892 3.263 4-.29 6.014-3.956 3.914 3.66 4.208-.162 5.322-4.203 4.332 3.912 4.295.038 4.413-3.795 4.5 4.123 4.37.123 4.907-3.67 4.987 4.246 3.973-.08 3.467-3.63 6.106 4.087 4.122.172 3.096-4.66 6.354 5.445 4.414-.328 4.703-3.09 4.752-3.92.613-4.498-10.18-25.057 6.552-16.405.37-6.138-3.955-8.944 4.327-30.91-.292-6.058-7.207-37.006 11.578-6.606-.252-4.35-9.36-6.067h-4.492l-4.58 3.75-4.863-3.218-4.117.204-4.412 3.133-5.234-2.855-4.005.328-5.154 3.338-4.29-3.67-4.245-.173-5.035 3.053-4.778-3.3-4.135-.376-5.03 4.16-4.327-4.58-4.117-.29-5.977 3.215-3.874-3.876-4.112-.043-4.45 4.042-4.785-4.19z" fill="#000"/><path d="M6.245 111.476v-1.332c0-.922.072-3.246.072-5.472 0-5.2.18-13.705.18-29.808 0-14.414 0-8.64.9-40.464.363-12.828-.36-16.92-.36-16.92s26.28-2.16 56.52-1.44c30.24.72 43.92 0 43.92 0l-1.98 19.08s-.54 51.84-.54 66.96c0 15.12-.252 25.957-.252 25.957l-3.6 15.12S72.02 137.72 54.74 137.72 6.244 111.476 6.244 111.476" fill="#FFF"/><path d="M64.43 11.967l3.912-.162.06-6.968-3.67.17-6.126-.302-.06 6.99 5.885.272zM82.093 11.233l.06-7.03-9.803.452-.06 6.986 9.803-.407zM99.85 3.388l-.063 7.11 9.802-.407.06-7.154-9.8.452zM95.84 10.662l.063-7.092-9.803.452-.06 7.047 9.8-.408zM13.45 2.482L3.655 2l-.063 7.142 9.795.455.063-7.115zM27.125 10.235l.062-7.077-9.793-.482-.063 7.104 9.795.455zM40.864 10.873l.06-7.038-9.794-.482-.062 7.065 9.796.455zM54.603 11.51l.06-7-9.793-.482-.06 7.027 9.793.455zM16.07 154.233l-.066 7.588 9.802-.572.065-7.352-9.8.337zM98.454 163.17l9.795.407.068-7.907-9.796-.296-.068 7.796z" fill="#D9C72D"/><path d="M3.12 13.07l3.802 20.62-.196 22.504c12.36-6.34 28.95-10.017 46.673-10.093-1.37.847-2.663 1.836-3.842 2.994-.608.598-1.17 1.228-1.695 1.88-15.99.774-30.59 4.572-41.184 10.6l-.157 17.89-.22 25.243c.69.406 1.4.805 2.13 1.197 1.283.69 2.618 1.342 3.99 1.967 1.52 2.77 3.598 5.293 6.123 7.478-4.403-1.48-8.53-3.227-12.29-5.24l-.147 16.837L2 150.77l35.117-1.204 71.597 2.17-3.7-23.927.16-18.137c-12.29 6.962-29.388 11.11-47.8 11.365 2.912-1.184 5.61-2.72 8-4.58.14-.028.615-.27 1.272-.635 15.23-1.36 28.893-5.49 38.576-11.677l.352-40.242c-1.393-.918-2.878-1.808-4.468-2.66-1.675-.9-3.438-1.734-5.263-2.522-1.206-1.694-2.566-3.33-4.086-4.877-.98-.996-2-1.92-3.046-2.788 5.293 1.63 10.216 3.642 14.636 6.015.78.42 1.537.85 2.277 1.284l.203-23.396 4.168-20.94-45.66 1.892L3.122 13.07zm87.345 56.383c1.546.964 3.005 1.874 5.414 4.325 1.38 1.404 2.184 2.54 2.78 3.546.118 2.08-.015 4.115-.405 6.058-.482-.322-.94-.61-1.396-.893-1.546-.963-3.006-1.873-5.412-4.322-2.41-2.452-3.295-3.928-4.23-5.49-1.015-1.692-2.063-3.44-4.8-6.227-2.738-2.784-4.468-3.863-6.142-4.906-1.545-.963-3.005-1.873-5.413-4.323-2.41-2.45-3.294-3.928-4.23-5.49-.858-1.43-1.743-2.902-3.646-5.003 1.276-.194 2.585-.28 3.918-.258 1.12.88 2.06 1.468 2.976 2.038 1.547.964 3.006 1.874 5.414 4.324 2.41 2.452 3.295 3.928 4.232 5.49 1.014 1.69 2.063 3.44 4.8 6.225 2.736 2.785 4.466 3.864 6.14 4.906zm6.57-.037c-1.83-1.655-3.175-2.495-4.483-3.31-1.545-.964-3.004-1.874-5.412-4.324-2.41-2.45-3.293-3.926-4.23-5.49-1.015-1.69-2.064-3.44-4.802-6.226-.68-.69-1.296-1.277-1.866-1.783 4.503 1.668 8.9 4.462 12.7 8.328 3.79 3.856 6.5 8.288 8.092 12.806zM60.63 57.626c-1.014-1.69-2.063-3.44-4.802-6.227-.46-.47-.902-.898-1.337-1.302 1.28-.915 2.664-1.654 4.13-2.22.13.13.255.248.393.388 2.41 2.453 3.294 3.93 4.232 5.492 1.014 1.692 2.063 3.442 4.8 6.228 2.738 2.785 4.468 3.863 6.142 4.907 1.545.963 3.005 1.873 5.413 4.323 2.41 2.452 3.293 3.927 4.23 5.49 1.014 1.692 2.062 3.44 4.8 6.227 2.737 2.785 4.467 3.863 6.14 4.905.734.458 1.452.91 2.26 1.515-.584 1.376-1.326 2.673-2.223 3.875-1.565-1.35-2.772-2.106-3.95-2.84-1.544-.963-3.003-1.873-5.412-4.324-2.41-2.45-3.295-3.928-4.23-5.49-1.015-1.692-2.064-3.44-4.802-6.226-2.737-2.785-4.466-3.864-6.14-4.907-1.545-.96-3.004-1.87-5.412-4.322-2.41-2.452-3.295-3.93-4.232-5.49zM68.19 70.79c1.545.963 3.005 1.873 5.413 4.323 2.41 2.45 3.293 3.927 4.23 5.49 1.014 1.69 2.063 3.44 4.8 6.226 2.738 2.785 4.468 3.863 6.14 4.906 1.045.652 2.058 1.29 3.344 2.384-1.183 1.018-2.476 1.863-3.856 2.542-1.305-1.07-2.364-1.732-3.4-2.378-1.546-.963-3.005-1.873-5.413-4.323-2.41-2.45-3.294-3.927-4.23-5.49-1.015-1.69-2.063-3.44-4.8-6.226-2.737-2.786-4.467-3.864-6.14-4.907-1.546-.963-3.006-1.873-5.414-4.323-2.41-2.452-3.295-3.93-4.232-5.492-1.013-1.69-2.062-3.44-4.8-6.228-.296-.3-.582-.58-.865-.853.698-1.326 1.55-2.57 2.568-3.703.477.432.967.9 1.482 1.426 2.41 2.453 3.296 3.93 4.233 5.493 1.014 1.69 2.063 3.44 4.802 6.228 2.737 2.785 4.467 3.863 6.14 4.906zM82.77 97.632c.317.197.63.395.95.602-2.275.5-4.683.635-7.142.417-.885-.665-1.88-1.52-3.132-2.794-2.41-2.452-3.295-3.928-4.23-5.49-1.015-1.692-2.064-3.44-4.8-6.227-2.738-2.786-4.468-3.864-6.14-4.907-1.547-.963-3.006-1.873-5.414-4.324-2.41-2.453-3.295-3.93-4.232-5.492-.562-.938-1.136-1.894-2-3.034.002-2.046.256-4.035.767-5.922 2.11 2.21 2.964 3.616 3.847 5.09 1.015 1.69 2.063 3.44 4.802 6.227 2.736 2.785 4.466 3.863 6.14 4.906 1.545.963 3.005 1.873 5.413 4.323 2.41 2.45 3.293 3.926 4.23 5.49 1.014 1.69 2.062 3.44 4.8 6.225 2.736 2.786 4.466 3.864 6.14 4.907zm-23.552-1.49c-3.138-.062-4.756-.457-6.444-.88-1.912-.48-3.89-.975-7.795-1.01-3.904-.033-5.89.427-7.812.873-1.775.412-3.45.8-6.886.77-3.437-.03-5.106-.447-6.874-.89-1.913-.48-3.892-.974-7.8-1.008-.683-.006-1.294.007-1.87.03.253-1.543.705-3.046 1.346-4.497.184 0 .37-.002.564 0 3.44.03 5.108.448 6.876.89 1.913.48 3.89.975 7.797 1.01 3.906.033 5.89-.427 7.813-.874 1.774-.41 3.45-.8 6.887-.77 3.436.03 5.106.448 6.872.89.43.11.872.216 1.33.32.118.123.23.25.35.372 1.775 1.806 3.673 3.394 5.648 4.774zM49.218 86.114c-1.127-.152-2.454-.258-4.163-.273-3.906-.033-5.893.427-7.814.873-1.773.412-3.45.8-6.885.77-3.437-.03-5.106-.447-6.873-.89-1.615-.405-3.29-.817-6.12-.957.723-.98 1.54-1.925 2.457-2.827.044-.045.094-.087.14-.132 1.406-.17 2.496-.416 3.553-.66 1.774-.413 3.45-.802 6.884-.772 3.437.03 5.106.448 6.873.89 1.912.48 3.89.975 7.797 1.01.834.007 1.576-.01 2.253-.043.578 1.02 1.213 2.025 1.898 3.01zm-10.99-7.805c-1.913-.48-3.89-.975-7.796-1.01-.976-.008-1.832.015-2.597.06 4.447-2.045 9.553-3.137 14.878-3.09.346.002.69.028 1.035.06.424 1.633.977 3.26 1.656 4.87H45.1c-3.435-.03-5.105-.448-6.872-.89zm10.052-2.554c.5.584 1.082 1.22 1.77 1.918 2.736 2.787 4.467 3.865 6.14 4.908 1.546.963 3.006 1.872 5.414 4.323 2.408 2.45 3.292 3.926 4.23 5.488.788 1.318 1.603 2.674 3.218 4.525-4.49-1.67-8.877-4.46-12.666-8.315-3.8-3.867-6.518-8.315-8.106-12.847zM13.523 97.98c.61-.03 1.285-.045 2.05-.038 3.44.03 5.11.448 6.877.89 1.913.48 3.892.975 7.797 1.01 3.905.033 5.892-.428 7.813-.873 1.774-.413 3.45-.802 6.886-.772 3.437.03 5.105.448 6.872.89 1.913.48 3.89.975 7.797 1.01 2.592.02 4.332-.176 5.776-.44 1.84.827 3.71 1.486 5.587 1.974-.122.482-.255.963-.415 1.436-1.69.166-2.908.45-4.1.726-1.776.41-3.45.8-6.887.77-3.436-.03-5.105-.448-6.87-.89-1.915-.48-3.892-.975-7.797-1.01-3.906-.033-5.892.427-7.814.873-1.773.412-3.45.8-6.886.77-3.437-.03-5.106-.447-6.873-.89-1.914-.48-3.892-.975-7.8-1.008-.42-.005-.815.002-1.208.01-.446-1.434-.722-2.918-.804-4.44zm28.793 21.93c-5.422-.048-10.487-1.27-14.815-3.35.766.06 1.623.096 2.6.105 3.906.034 5.892-.427 7.813-.873 1.774-.412 3.45-.8 6.887-.77 3.436.03 5.105.448 6.87.89 1.494.375 3.038.754 5.493.92-4.44 2.038-9.535 3.124-14.847 3.08zm2.52-8.834c-3.907-.034-5.894.427-7.814.872-1.775.412-3.45.8-6.887.77-3.438-.03-5.106-.447-6.874-.89-1.048-.262-2.132-.53-3.55-.726-1.447-1.45-2.675-3.038-3.65-4.735 3.054.07 4.652.46 6.317.877 1.913.48 3.89.975 7.797 1.01 3.905.033 5.89-.427 7.812-.873 1.775-.41 3.45-.8 6.887-.77 3.437.03 5.105.45 6.872.89 1.913.48 3.89.975 7.796 1.01 3.906.034 5.892-.427 7.812-.873.372-.086.74-.17 1.12-.25-.897 1.397-1.987 2.73-3.26 3.984-.485.477-.997.928-1.52 1.367-1.098.155-2.403.254-4.19.238-3.436-.03-5.106-.447-6.872-.89-1.913-.48-3.89-.974-7.795-1.01z" fill="#C5233D"/><path d="M37.062 153.513l-7.245.248-.062 7.258 6.938-.405 2.864.118.06-7.14-2.555-.077zM2.322 154.705l-.07 7.92 9.804-.574.07-7.682-9.803.337zM71.042 154.542l-.065 7.49 9.796.406.066-7.6-9.798-.296zM84.783 154.958l-.067 7.643 9.794.407.068-7.752-9.795-.297zM57.303 154.126l-.065 7.337 9.795.407.065-7.448-9.795-.296zM43.562 153.71l-.062 7.184 9.794.406.064-7.293-9.796-.298z" fill="#D9C72D"/></g></svg>