<?xml version="1.0" encoding="UTF-8" standalone="no"?><svg width="104" height="166" viewBox="0 0 104 166" xmlns="http://www.w3.org/2000/svg"><title>empty-aerosol-cans</title><g fill="none" fill-rule="evenodd"><path d="M75.347 101.777c-13.778 0-24.948 2.978-24.948 6.653v40.083h.164c1.41 2.57 11.964 4.57 24.783 4.57 12.82 0 23.373-2 24.782-4.57h.164V108.43c0-3.675-11.17-6.653-24.947-6.653" fill="#C9AA32"/><path d="M75.347 101.777c-13.778 0-24.948 2.978-24.948 6.653v40.083h.164c1.41 2.57 11.964 4.57 24.783 4.57 12.82 0 23.373-2 24.782-4.57h.164V108.43c0-3.675-11.17-6.653-24.947-6.653z" stroke="#36342F" stroke-width="3.313" stroke-linejoin="round"/><path d="M98.797 108.43c0 3.673-10.498 6.652-23.45 6.652-12.95 0-23.45-2.98-23.45-6.653-.002-3.675 10.498-6.654 23.45-6.654s23.45 2.98 23.45 6.653" fill="#D9C72D"/><path d="M98.797 108.43c0 3.673-10.498 6.652-23.45 6.652-12.95 0-23.45-2.98-23.45-6.653-.002-3.675 10.498-6.654 23.45-6.654s23.45 2.98 23.45 6.653z" stroke="#36342F" stroke-width="2.071"/><path d="M16.46 25.97C14.244 27.817 3.705 37.412 3.705 52.443v107.472l.453.31c.224.154 5.775 3.783 26.756 3.783 21.01 0 26.118-3.66 26.327-3.816l.41-.307V53.232c0-14.07-10.723-25.226-12.75-27.21l-28.444-.053z" fill="#50B9AD"/><path d="M16.46 25.97C14.244 27.817 3.705 37.412 3.705 52.443v107.472l.453.31c.224.154 5.775 3.783 26.756 3.783 21.01 0 26.118-3.66 26.327-3.816l.41-.307V53.232c0-14.07-10.723-25.226-12.75-27.21l-28.444-.053z" stroke="#36342F" stroke-width="3.313"/><path d="M11.9 82.156c-1.02-1.016-1.394-1.772-1.394-2.657 0-1.55 1.348-2.64 3.8-2.64 2.097 0 2.893.406 2.893.924 0 .258-.136.57-.444.847-.287-.2-1.15-.44-2.164-.44-1.324 0-2.164.46-2.164 1.27 0 .684.375 1.164 1.015 1.828l2.408 2.27c1.15 1.143 1.48 1.973 1.48 3.116 0 1.882-.95 3.468-3.93 3.468-2.01 0-2.916-.59-2.916-1.088 0-.313.155-.737.463-1.07.465.352 1.216.648 2.275.648 1.59 0 2.187-.76 2.187-1.883 0-.868-.31-1.478-1.303-2.436L11.9 82.156zM21.35 77.046c2.784 0 4.065 1.09 4.065 3.634 0 3.043-1.855 4.04-4.04 4.04h-.796v4.943c0 .296-.023.296-1.767.296V77.34c0-.203.065-.294.35-.294h2.188zm.2 6.29c1.26 0 1.9-.758 1.9-2.822 0-1.31-.442-2.158-1.767-2.158H20.58v4.98h.97zM29.327 77.046c2.78 0 4.064 1.09 4.064 3.634 0 1.974-.772 3.08-1.92 3.614.707.795 1.854 2.492 2.076 5.333 0 .277-.07.368-.908.368-.285 0-.64-.018-1.035-.036-.244-3.12-1.283-4.67-1.834-5.258l-.42.018h-.798v4.943c0 .296-.02.296-1.765.296V77.34s0-.294.354-.294h2.187zm.2 6.29c1.257 0 1.897-.758 1.897-2.712 0-1.42-.44-2.268-1.765-2.268H28.55v4.98h.974zM43.552 89.682c.043.202-.066.313-.775.313-.243 0-.594 0-1.06-.036l-.927-3.285h-3.842l-.863 3.025c-.064.204-.13.295-.838.295-.22 0-.682-.018-1.104-.053l3.954-12.693c.044-.185.286-.26.662-.26.31 0 .616.018.84.056l3.952 12.636zm-3.16-4.353l-.75-2.658c-.354-1.236-.684-2.675-.773-3.56-.13.885-.443 2.324-.796 3.56l-.75 2.657h3.068zM47.418 89.664c0 .295.023.295-1.788.295v-5.24l-3.047-7.435c-.09-.238-.045-.238 2.01-.238l.884 2.525c.44 1.2 1.037 3.34 1.102 3.875.066-.535.685-2.694 1.126-3.875l.773-2.25c.087-.275.108-.275 1.92-.275l-2.982 7.6v5.017z" fill="#D9C72D"/><path d="M38.525 20.494v-17.5h-11.16L22.242 5.73v14.764H16.46v6.4h28.44v-6.4h-6.373z" fill="#FFF"/><path d="M38.525 20.494v-17.5h-11.16L22.242 5.73v14.764H16.46v6.4h28.44v-6.4h-6.373z" stroke="#36342F" stroke-width="2.071"/><path d="M32.156 7.28c-1.598 0-2.893 1.083-2.893 2.417 0 1.335 1.295 2.416 2.893 2.416 1.597 0 2.89-1.08 2.89-2.416 0-1.334-1.293-2.417-2.89-2.417" fill="#36342F"/><path d="M3.706 50.095H57.47M4.47 45.532h52.142" stroke="#36342F" stroke-width="2.071"/></g></svg>