<?xml version="1.0" encoding="UTF-8" standalone="no"?><svg width="149" height="180" viewBox="0 0 149 180" xmlns="http://www.w3.org/2000/svg"><title>juice-cartons</title><g fill="none" fill-rule="evenodd"><path d="M142.07 44.445l-12.757-26.238-.037-2.87c-.193-2.395 1.293-11.194-8.605-9.705-9.898 1.488-30.857 4.593-30.857 4.593-4.187.456-5.715 2.735-6.273 4.49l-.012-.002-.017.104c-.176.58-.25 1.095-.277 1.46L81.27 26.624 65.84 32.608l.006 116.87 26.438 20.932 1.157.916.808-.183 47.878-10.882-.058-115.815z" fill="#C5233D"/><path d="M142.07 44.445l-12.757-26.238-.037-2.87c-.193-2.395 1.293-11.194-8.605-9.705-9.898 1.488-30.857 4.593-30.857 4.593-4.187.456-5.715 2.735-6.273 4.49l-.012-.002-.017.104c-.176.58-.25 1.095-.277 1.46L81.27 26.624 65.84 32.608l.006 116.87 26.438 20.932 1.157.916.808-.183 47.878-10.882-.058-115.815z" stroke="#36342F" stroke-width="3.476"/><path d="M94.252 171.143V55.313M65.843 32.607l28.41 22.706 47.875-10.88" stroke="#36342F" stroke-width="2.173"/><path d="M129.314 18.206L81.27 26.624l12.982 28.69" fill="#FFF"/><path d="M129.314 18.206L81.27 26.624l12.982 28.69" stroke="#36342F" stroke-width="2.173"/><path d="M118.507 35.036c0 3.286-2.665 5.95-5.952 5.95-3.288 0-5.953-2.664-5.953-5.95 0-3.288 2.665-5.952 5.953-5.952 3.287 0 5.952 2.664 5.952 5.952" fill="#FFF"/><path d="M118.507 35.036c0 3.286-2.665 5.95-5.952 5.95-3.288 0-5.953-2.664-5.953-5.95 0-3.288 2.665-5.952 5.953-5.952 3.287 0 5.952 2.664 5.952 5.952z" stroke="#36342F" stroke-width="2.173"/><path d="M74.122 109.14L63.034 86.338l-.032-2.496c-.168-2.08 1.125-9.726-7.48-8.432C46.92 76.7 28.703 79.4 28.703 79.4c-3.638.396-4.965 2.377-5.45 3.902h-.01l-.016.088c-.153.504-.217.952-.243 1.268l-1.705 8.994-13.407 5.2.004 56.556L30.852 173.6l1.006.797.703-.16 41.61-9.456-.048-55.64z" fill="#D9C72D"/><path d="M74.122 109.14L63.034 86.338l-.032-2.496c-.168-2.08 1.125-9.726-7.48-8.432C46.92 76.7 28.703 79.4 28.703 79.4c-3.638.396-4.965 2.377-5.45 3.902h-.01l-.016.088c-.153.504-.217.952-.243 1.268l-1.705 8.994-13.407 5.2.004 56.556L30.852 173.6l1.006.797.703-.16 41.61-9.456-.048-55.64z" stroke="#36342F" stroke-width="3.476"/><path d="M32.56 174.238v-55.652M7.87 98.852l24.69 19.734 41.61-9.456" stroke="#36342F" stroke-width="2.173"/><g><path d="M63.034 86.337l-41.756 7.315 11.283 24.934" fill="#FFF"/><path d="M63.034 86.337l-41.756 7.315 11.283 24.934" stroke="#36342F" stroke-width="2.173"/></g></g></svg>