<?xml version="1.0" encoding="UTF-8" standalone="no"?><svg width="144" height="111" viewBox="0 0 144 111" xmlns="http://www.w3.org/2000/svg"><title>newspapers-and-flyers</title><g fill="none" fill-rule="evenodd"><path d="M7.925 42.9l-4.832 3.693 54.94 62.01c.537-.053 3.287.716 4.206-2.028.32-.978-.65-2.55-.65-2.55S7.305 40.956 5.926 40.228c-1.37-.726 80.09-37.435 80.09-37.435s51.846 49.448 53.057 50.42c1.582 1.263 2.873 3.125 1.71 5.116-1.36 2.333-72.946 47.31-73.938 47.81-1 .495-6.087 4.65-8.647 2.66" fill="#FFF"/><path d="M7.925 42.9l-4.832 3.693 54.94 62.01c.537-.053 3.287.716 4.206-2.028.32-.978-.65-2.55-.65-2.55S7.305 40.956 5.926 40.228c-1.37-.726 80.09-37.435 80.09-37.435s51.846 49.448 53.057 50.42c1.582 1.263 2.873 3.125 1.71 5.116-1.36 2.333-72.946 47.31-73.938 47.81-1 .495-6.087 4.65-8.647 2.66" stroke="#665C51" stroke-width="1.4"/><path d="M16.648 40.366l67.034-32.1 9.092 10.226-64.478 34.655-11.648-12.78zM98.227 23.827L84.412 31.83l26.565 26.25s8.355 7.683 8.355 11.204c0 1.28 14.143-8.643 14.143-8.643s0-5.763-5.784-9.6c-5.783-3.847-29.463-27.213-29.463-27.213" fill="#665C51"/><path d="M82.592 34.07L68.77 42.073l26.138 26.253s8.36 7.68 8.36 11.2c0 1.28 14.138-8.64 14.138-8.64s0-5.766-5.788-9.604c-5.784-3.84-29.026-27.212-29.026-27.212" fill="#665C51"/><path d="M98.49 77.432L133.1 57.387M95.5 73.85l34.612-20.055M92.008 70.39l34.61-20.047M88.43 66.91l34.61-20.043M84.408 63.7l34.613-20.055m-37.6 16.462l34.61-20.045m-38.1 16.584L112.538 36.6M74.35 53.18l34.61-20.053m-37.484 16.46l34.61-20.048m-37.6 16.47l34.61-20.055m-38.1 16.592l34.612-20.05" stroke="#FFF" stroke-width="1.4" stroke-linecap="round"/><path d="M85.065 66.144l-27.633 15.91-20-21.648 27.82-14.36 19.813 20.098z" fill="#C5233D"/><path d="M30.16 54.3l64.194-34.247 1.834 1.852-64.482 34.657-1.546-2.26zM100.933 80.504c-.653-.616-.89-2.04-1.52-2.646C93.3 72.02 88.12 66.903 88.12 66.903L74.3 74.906l13.336 13.182 13.297-7.584zM84.635 90.74c-.555-.532-.227-1.83-.767-2.355C77.736 82.43 72.48 77.15 72.48 77.15L58.657 85.15l11.004 10.706 1.707 2.18 13.267-7.3z" fill="#665C51"/><path d="M67.818 99.727l34.606-20.05M64.237 96.254L98.85 76.202m-37.487 16.46l34.61-20.05m-37.6 16.47l34.61-20.055m-38.1 16.595l34.612-20.05" stroke="#FFF" stroke-width="1.4" stroke-linecap="round"/><path d="M3.092 45.74l4.54-3.977 53.976 61.356s.3 6.22-1.973 6.22c-2.276 0-56.542-63.6-56.542-63.6" fill="#665C51"/></g></svg>