<?xml version="1.0" encoding="UTF-8" standalone="no"?><svg width="144" height="141" viewBox="0 0 144 141" xmlns="http://www.w3.org/2000/svg"><title>office-papers</title><g fill="none" fill-rule="evenodd"><path d="M98.547 3.09L30.82 35.07l42.87 90.79 67.727-31.98-42.87-90.79z" fill="#FFF"/><path d="M98.547 3.09L30.82 35.07l42.87 90.79 67.727-31.98-42.87-90.79z" stroke="#36342F" stroke-width="2.955"/><path d="M51.245 50.67c2.877-1.358 3.022-1.05 5.9-2.408 2.877-1.36 2.73-1.667 5.61-3.027 2.875-1.356 3.02-1.05 5.897-2.406 2.877-1.362 2.732-1.668 5.61-3.027 2.876-1.36 3.022-1.05 5.9-2.41 2.877-1.36 2.732-1.667 5.61-3.026 2.88-1.36 3.024-1.05 5.903-2.412 2.88-1.357 2.734-1.665 5.613-3.026M51.245 50.67c2.877-1.358 3.022-1.05 5.9-2.408 2.877-1.36 2.73-1.667 5.61-3.027 2.875-1.356 3.02-1.05 5.897-2.406 2.877-1.362 2.732-1.668 5.61-3.027 2.876-1.36 3.022-1.05 5.9-2.41 2.877-1.36 2.732-1.667 5.61-3.026 2.88-1.36 3.024-1.05 5.903-2.412 2.88-1.357 2.734-1.665 5.613-3.026M55.11 58.862c2.88-1.36 3.025-1.05 5.902-2.41 2.878-1.358 2.732-1.665 5.61-3.022 2.877-1.36 3.022-1.052 5.9-2.41 2.877-1.36 2.73-1.665 5.608-3.025 2.878-1.36 3.024-1.05 5.903-2.41 2.877-1.358 2.732-1.666 5.61-3.025 2.878-1.36 3.023-1.052 5.904-2.41 2.88-1.36 2.733-1.67 5.613-3.027m-46.05 21.74c2.88-1.36 3.025-1.05 5.902-2.41 2.878-1.358 2.732-1.665 5.61-3.022 2.877-1.36 3.022-1.052 5.9-2.41 2.877-1.36 2.73-1.665 5.608-3.025 2.878-1.36 3.024-1.05 5.903-2.41 2.877-1.358 2.732-1.666 5.61-3.025 2.878-1.36 3.023-1.052 5.904-2.41 2.88-1.36 2.733-1.67 5.613-3.027m-42.18 29.93c2.876-1.36 3.02-1.05 5.9-2.41 2.878-1.357 2.732-1.665 5.61-3.023 2.877-1.36 3.022-1.05 5.898-2.41 2.877-1.36 2.732-1.665 5.61-3.024 2.878-1.36 3.024-1.052 5.9-2.41 2.88-1.358 2.734-1.666 5.612-3.026 2.878-1.358 3.024-1.052 5.904-2.41 2.88-1.36 2.733-1.668 5.612-3.027M58.98 67.053c2.876-1.36 3.02-1.05 5.9-2.41 2.878-1.357 2.732-1.665 5.61-3.023 2.877-1.36 3.022-1.05 5.898-2.41 2.877-1.36 2.732-1.665 5.61-3.024 2.878-1.36 3.024-1.052 5.9-2.41 2.88-1.358 2.734-1.666 5.612-3.026 2.878-1.358 3.024-1.052 5.904-2.41 2.88-1.36 2.733-1.668 5.612-3.027m-42.18 29.933c2.878-1.358 3.023-1.05 5.9-2.41 2.88-1.357 2.733-1.665 5.61-3.025 2.878-1.357 3.023-1.05 5.9-2.407 2.877-1.358 2.73-1.666 5.61-3.025 2.876-1.36 3.023-1.05 5.9-2.41 2.878-1.36 2.733-1.667 5.61-3.027 2.88-1.358 3.026-1.05 5.905-2.408 2.88-1.36 2.735-1.668 5.614-3.028M62.846 75.246c2.878-1.358 3.023-1.05 5.9-2.41 2.88-1.357 2.733-1.665 5.61-3.025 2.878-1.357 3.023-1.05 5.9-2.407 2.877-1.358 2.73-1.666 5.61-3.025 2.876-1.36 3.023-1.05 5.9-2.41 2.878-1.36 2.733-1.667 5.61-3.027 2.88-1.358 3.026-1.05 5.905-2.408 2.88-1.36 2.735-1.668 5.614-3.028m-42.18 29.932c2.876-1.36 3.023-1.052 5.9-2.41 2.878-1.358 2.733-1.667 5.61-3.025 2.877-1.357 3.022-1.05 5.9-2.408 2.876-1.357 2.73-1.666 5.608-3.025 2.878-1.358 3.025-1.05 5.902-2.41 2.878-1.357 2.732-1.666 5.61-3.024 2.88-1.36 3.025-1.053 5.904-2.41 2.88-1.362 2.734-1.67 5.613-3.03M66.715 83.437c2.876-1.36 3.023-1.052 5.9-2.41 2.878-1.358 2.733-1.667 5.61-3.025 2.877-1.357 3.022-1.05 5.9-2.408 2.876-1.357 2.73-1.666 5.608-3.025 2.878-1.358 3.025-1.05 5.902-2.41 2.878-1.357 2.732-1.666 5.61-3.024 2.88-1.36 3.025-1.053 5.904-2.41 2.88-1.362 2.734-1.67 5.613-3.03M70.58 91.63c2.88-1.36 3.024-1.05 5.9-2.41 2.88-1.36 2.734-1.668 5.61-3.026 2.878-1.358 3.023-1.05 5.9-2.41 2.877-1.357 2.732-1.666 5.61-3.023 2.878-1.358 3.023-1.05 5.9-2.41 2.88-1.36 2.733-1.666 5.61-3.026 2.88-1.36 3.027-1.05 5.905-2.41 2.88-1.36 2.734-1.67 5.613-3.027M70.58 91.63c2.88-1.36 3.024-1.05 5.9-2.41 2.88-1.36 2.734-1.668 5.61-3.026 2.878-1.358 3.023-1.05 5.9-2.41 2.877-1.357 2.732-1.666 5.61-3.023 2.878-1.358 3.023-1.05 5.9-2.41 2.88-1.36 2.733-1.666 5.61-3.026 2.88-1.36 3.027-1.05 5.905-2.41 2.88-1.36 2.734-1.67 5.613-3.027M74.453 99.82c2.877-1.36 3.022-1.053 5.9-2.412 2.877-1.358 2.732-1.665 5.61-3.024 2.875-1.36 3.02-1.05 5.896-2.41 2.877-1.357 2.732-1.666 5.61-3.023 2.876-1.358 3.023-1.05 5.9-2.41 2.877-1.358 2.732-1.664 5.61-3.024 2.88-1.36 3.024-1.052 5.903-2.412 2.878-1.36 2.734-1.667 5.613-3.027M74.453 99.82c2.877-1.36 3.022-1.053 5.9-2.412 2.877-1.358 2.732-1.665 5.61-3.024 2.875-1.36 3.02-1.05 5.896-2.41 2.877-1.357 2.732-1.666 5.61-3.023 2.876-1.358 3.023-1.05 5.9-2.41 2.877-1.358 2.732-1.664 5.61-3.024 2.88-1.36 3.024-1.052 5.903-2.412 2.878-1.36 2.734-1.667 5.613-3.027M78.32 108.01c2.878-1.36 3.023-1.05 5.9-2.41 2.878-1.358 2.732-1.665 5.61-3.025 2.875-1.357 3.02-1.05 5.896-2.408 2.878-1.36 2.733-1.666 5.61-3.025 2.878-1.36 3.024-1.052 5.902-2.41 2.877-1.36 2.732-1.665 5.608-3.025 2.88-1.36 3.025-1.052 5.904-2.412 2.88-1.36 2.735-1.667 5.612-3.025m-46.04 21.74c2.876-1.36 3.02-1.05 5.898-2.41 2.878-1.358 2.732-1.665 5.61-3.025 2.875-1.357 3.02-1.05 5.896-2.408 2.878-1.36 2.733-1.666 5.61-3.025 2.878-1.36 3.024-1.052 5.902-2.41 2.877-1.36 2.732-1.665 5.608-3.025 2.88-1.36 3.025-1.052 5.904-2.412 2.88-1.36 2.735-1.667 5.612-3.025" stroke="#36342F" stroke-width="1.847"/><path d="M70.653 62.547l-3.99-1.23-63.52 49.72 41.703 27.51 8.725-10.25" fill="#50B9AD"/><path d="M70.653 62.547l-3.99-1.23-63.52 49.72 41.703 27.51 8.725-10.25" stroke="#36342F" stroke-width="2.955"/><path d="M3.145 111.037s3.13.74 7.164-.584l25.523-9.807" stroke="#36342F" stroke-width="1.847"/><path d="M22.96 114.73l45.68 20.24L113.466 60l-36.094-4.81-54.413 59.54z" fill="#D9C72D"/><path d="M22.96 114.73l45.68 20.24L113.466 60l-36.094-4.81-54.413 59.54z" stroke="#36342F" stroke-width="2.955"/><g><path d="M92.885 64.57s4.437.44 5.557.675c1.88.295 1.603 1.794.588 3.354-.8 1.237-12.87 19.866-13.482 20.667-.617.798-2.17 1.754-4.408 1.043-.88-.29-4.523-1.485-5.82-1.93-1.633-.558-2.45-1.453-1.354-2.94.827-1.137 14.73-18.412 15.396-19.362 1.508-2.005 3.523-1.508 3.523-1.508" fill="#FFF"/><path d="M92.885 64.57s4.437.44 5.557.675c1.88.295 1.603 1.794.588 3.354-.8 1.237-12.87 19.866-13.482 20.667-.617.798-2.17 1.754-4.408 1.043-.88-.29-4.523-1.485-5.82-1.93-1.633-.558-2.45-1.453-1.354-2.94.827-1.137 14.73-18.412 15.396-19.362 1.508-2.005 3.523-1.508 3.523-1.508z" stroke="#36342F" stroke-width="1.847"/></g></g></svg>