<?xml version="1.0" encoding="UTF-8" standalone="no"?><svg width="104" height="175" viewBox="0 0 104 175" xmlns="http://www.w3.org/2000/svg"><title>plastic-shopping-bags</title><g fill="none" fill-rule="evenodd"><path d="M98.848 118.27c-2-7.624-6.41-14.32-8.6-22.022-2.506-8.806-2.258-18.384-3.536-27.385-1.835-12.872-2.033-21.375-2.106-33.328-.065-9.864-1.808-26.704-9.99-33.194-7.353-.106-10.033 1.023-13.95 10.214-2.785 6.538-6.195 19.448-7.447 22.77 0 0-4.18 21.783-11.105 18.37-9.913-4.88-7.684-18.005-9.047-21.882-1.453-4.134-2.526-9.097-2.39-13.512-4.073-4.562-14.88-2.342-18.847-2.234-3.315 15.79-5.134 29.026-2.87 45.11.984 7.01 3.612 14.957 3.09 22.64-.564 8.392.08 15.515-2.36 23.693-3.428 11.524-7.94 22.89-6.408 35.476 1.064 8.656 13.824 21.06 21.495 24.53 11.088 5.02 29.267 5.135 41.56 4.64 13.703-.54 26.215-6.54 31.34-19.538 4.42-11.23 4.212-22.787 1.17-34.35m-74.92-55.55c-5.778.23-10.15-21.647-5.974-32.637l.196-6.116c2.254-.185 2.957.42 4.88 1.16 2.17 12.308 7.097 32.607.898 37.594M74.88 30.97c.784 8.702 2.218 20.55-.773 22.487-2.218-.286-8.643-3.368-9.527-4.894-1.028-1.773-1.856-13.49-1.856-13.49l8.69-24.22s.965 3.614 1.923 6.277c1.193 3.313 1.156 9.565 1.543 13.84" fill="#FFF"/><path d="M98.848 118.27c-2-7.624-6.41-14.32-8.6-22.022-2.506-8.806-2.258-18.384-3.536-27.385-1.835-12.872-2.033-21.375-2.106-33.328-.065-9.864-1.808-26.704-9.99-33.194-7.353-.106-10.033 1.023-13.95 10.214-2.785 6.538-6.195 19.448-7.447 22.77 0 0-4.18 21.783-11.105 18.37-9.913-4.88-7.684-18.005-9.047-21.882-1.453-4.134-2.526-9.097-2.39-13.512-4.073-4.562-14.88-2.342-18.847-2.234-3.315 15.79-5.134 29.026-2.87 45.11.984 7.01 3.612 14.957 3.09 22.64-.564 8.392.08 15.515-2.36 23.693-3.428 11.524-7.94 22.89-6.408 35.476 1.064 8.656 13.824 21.06 21.495 24.53 11.088 5.02 29.267 5.135 41.56 4.64 13.703-.54 26.215-6.54 31.34-19.538 4.42-11.23 4.212-22.787 1.17-34.35zm-74.92-55.552c-5.78.23-10.152-21.647-5.975-32.637l.196-6.116c2.254-.185 2.957.42 4.88 1.16 2.17 12.308 7.097 32.607.898 37.594zM74.88 30.97c.784 8.702 2.218 20.55-.773 22.487-2.218-.286-8.643-3.368-9.527-4.894-1.028-1.773-1.856-13.49-1.856-13.49l8.69-24.22s.965 3.614 1.923 6.277c1.193 3.313 1.156 9.565 1.543 13.84z" stroke="#36342F" stroke-width=".988"/><path d="M98.848 118.27c-2-7.624-6.41-14.32-8.6-22.022-2.506-8.806-2.258-18.384-3.536-27.385-1.835-12.872-2.033-21.375-2.106-33.328-.065-9.864-1.808-26.704-9.99-33.194-7.353-.106-10.033 1.023-13.95 10.214-2.785 6.538-6.195 19.448-7.447 22.77 0 0-4.18 21.783-11.105 18.37-9.913-4.88-7.684-18.005-9.047-21.882-1.453-4.134-2.526-9.097-2.39-13.512-4.073-4.562-14.88-2.342-18.847-2.234-3.315 15.79-5.134 29.026-2.87 45.11.984 7.01 3.612 14.957 3.09 22.64-.564 8.392.08 15.515-2.36 23.693-3.428 11.524-7.94 22.89-6.408 35.476 1.064 8.656 13.824 21.06 21.495 24.53 11.088 5.02 29.267 5.135 41.56 4.64 13.703-.54 26.215-6.54 31.34-19.538 4.42-11.23 4.212-22.787 1.17-34.35zm-74.92-55.552c-5.78.23-10.152-21.647-5.975-32.637l.196-6.116c2.254-.185 2.957.42 4.88 1.16 2.17 12.308 7.097 32.607.898 37.594zM74.88 30.97c.784 8.702 2.218 20.55-.773 22.487-2.218-.286-8.643-3.368-9.527-4.894-1.028-1.773-1.856-13.49-1.856-13.49l8.69-24.22s.965 3.614 1.923 6.277c1.193 3.313 1.156 9.565 1.543 13.84z" stroke="#36342F" stroke-width=".988"/><path d="M26.94 51.922s5.88 40.234 7.562 46.61c1.68 6.374 2.017 11.267 1.85 12.544-.17 1.277-4.687 45.112-4.687 45.112s7.206-23.62 7.206-27.45c0-3.83 2.018-21.916.842-24.683-1.176-2.767-5.68-22.13-6.202-27.238-.52-5.107-5.562-26.056-5.562-26.056l-1.007 1.162z" fill="#36342F"/><path d="M26.94 51.922s5.88 40.234 7.562 46.61c1.68 6.374 2.017 11.267 1.85 12.544-.17 1.277-4.687 45.112-4.687 45.112s7.206-23.62 7.206-27.45c0-3.83 2.018-21.916.842-24.683-1.176-2.767-5.68-22.13-6.202-27.238-.52-5.107-5.562-26.056-5.562-26.056l-1.007 1.162z" stroke="#36342F" stroke-width=".988"/><path d="M22.562 62.357s-2.432 19.14-2.006 22.972c.425 3.828-1.277 10.425-1.277 10.425s2.735-7.447 3.282-13.405c.547-5.96 3.118-22.015 3.118-22.015l-3.118 2.022z" fill="#36342F"/><path d="M22.562 62.357s-2.432 19.14-2.006 22.972c.425 3.828-1.277 10.425-1.277 10.425s2.735-7.447 3.282-13.405c.547-5.96 3.118-22.015 3.118-22.015l-3.118 2.022z" stroke="#36342F" stroke-width=".988"/><path d="M34.438 42.626s7.61 19.7 10.163 25.35c2.555 5.65 8.938 18.63 9.79 23.312.85 4.68 2.127 9.903 2.127 9.903s-1.853-17.43-6.535-25.682c-4.68-8.25-8.622-22.22-8.622-22.22s-6.287-5.982-6.922-10.662" fill="#1F264F"/><path d="M34.438 42.626s7.61 19.7 10.163 25.35c2.555 5.65 8.938 18.63 9.79 23.312.85 4.68 2.127 9.903 2.127 9.903s-1.853-17.43-6.535-25.682c-4.68-8.25-8.622-22.22-8.622-22.22s-6.287-5.982-6.922-10.662z" stroke="#36342F" stroke-width=".988"/><path d="M75.25 45.537s-.337 30.854.898 39.366c1.234 8.512-.618 16.173 2.16 24.26 2.78 8.084 5.403 12.127 5.403 12.127s-7.282-10.213-8.503-13.192c-1.22-2.98-.91-14.896-1.374-18.94-.464-4.042.463-17.873 0-19.363-.464-1.49 1.416-24.258 1.416-24.258" fill="#36342F"/><path d="M75.25 45.537s-.337 30.854.898 39.366c1.234 8.512-.618 16.173 2.16 24.26 2.78 8.084 5.403 12.127 5.403 12.127s-7.282-10.213-8.503-13.192c-1.22-2.98-.91-14.896-1.374-18.94-.464-4.042.463-17.873 0-19.363-.464-1.49 1.416-24.258 1.416-24.258z" stroke="#36342F" stroke-width=".988"/><path d="M39.708 56.075s13.417 4.792 17.035 7.77c3.618 2.98 5.96.215 7.022.002 1.064-.212 12.1-11.075 12.1-11.075s-11.26 8.105-13.602 9.586C57.156 65.114 38.4 52.772 38.4 52.772l1.308 3.303z" fill="#36342F"/><path d="M39.708 56.075s13.417 4.792 17.035 7.77c3.618 2.98 5.96.215 7.022.002 1.064-.212 12.1-11.075 12.1-11.075s-11.26 8.105-13.602 9.586C57.156 65.114 38.4 52.772 38.4 52.772l1.308 3.303z" stroke="#36342F" stroke-width=".988"/></g></svg>