<?xml version="1.0" encoding="UTF-8" standalone="no"?><svg width="69" height="184" viewBox="0 0 69 184" xmlns="http://www.w3.org/2000/svg"><title>plastic-water-bottles</title><g fill="none" fill-rule="evenodd"><path d="M24.47 18.116l-.133 1.74s.3.983-3.6 3.72c-3.917 2.734-15.06 13.553-15.69 18.91-.644 5.358-.93 12.08-.93 17.542 0 0 .09 1.524.982 1.873.876.366 1.167 1.77-.258 2.486-1.114.714-.724 1.976-.724 2.296 0 .326-.074 8.306-.074 8.306s.074.828.95 1.045c0 0 2.057 1.08-.092 2.414-1.184 1.173-.868 2.263-.858 2.8C4.054 81.79 4 88.62 4 88.62s.118 1.04.902 1.367c.774.32 1.8 1.69-.104 2.62 0 0-.912.287-.8 2.52.12 2.233-.01 7.63-.01 7.63s-.04 1.01 1.204 1.444c1.243.43.577 1.82-.197 2.248-.788.44-.645 1.78-.645 2.07 0 .28-.336 44-.336 44s-.12 1.396.98 1.834c1.11.43.133 2.494-.32 2.582-.467.095-1.113.726-1.113 2.45 0 1.72-.777 13.61 3.13 18.07 2.183 1.903 7.61 2.493 7.843 2.637.237.15 5.707 1.44 7.404 0 0 0 1.084.414 1.148.44.99.335 2.034.586 3.114.754 1.444.232 2.947.29 4.427.157 1.738-.156 3.147-.69 4.745-1.138.01-.014.04-.014.05-.02 6.555 2.362 12.646-.48 12.646-.48 1.686 1.443 7.17.145 7.4 0 .235-.14 5.673-.736 7.85-2.64 3.905-4.454 3.12-16.343 3.12-18.073 0-1.726-.645-2.342-1.097-2.436-.454-.104-1.436-2.17-.334-2.603 1.113-.423.984-1.807.984-1.807s-.336-43.724-.336-44.015c0-.29.14-1.632-.648-2.06-.77-.43-1.43-1.824-.188-2.257 1.23-.43 1.197-1.44 1.197-1.44s-.124-5.41-.016-7.63c.12-2.232-.79-2.513-.79-2.513-1.915-.946-.885-2.306-.1-2.632.78-.315.89-1.36.89-1.36s-.07-6.84-.054-7.374c.02-.54.34-1.625-.835-2.808-2.157-1.326-.104-2.4-.104-2.4.885-.218.94-1.05.94-1.05s-.055-7.98-.055-8.305c0-.32.386-1.582-.733-2.298-1.425-.716-1.13-2.125-.257-2.485.893-.354.99-1.868.99-1.868 0-5.466-.3-12.193-.93-17.55-.635-5.353-11.786-16.178-15.698-18.904-3.895-2.74-3.52-3.957-3.52-3.957l.068-1.458-21.34.238z" fill="#50B9AD"/><path d="M24.47 18.116l-.133 1.74s.3.983-3.6 3.72c-3.917 2.734-15.06 13.553-15.69 18.91-.644 5.358-.93 12.08-.93 17.542 0 0 .09 1.524.982 1.873.876.366 1.167 1.77-.258 2.486-1.114.714-.724 1.976-.724 2.296 0 .326-.074 8.306-.074 8.306s.074.828.95 1.045c0 0 2.057 1.08-.092 2.414-1.184 1.173-.868 2.263-.858 2.8C4.054 81.79 4 88.62 4 88.62s.118 1.04.902 1.367c.774.32 1.8 1.69-.104 2.62 0 0-.912.287-.8 2.52.12 2.233-.01 7.63-.01 7.63s-.04 1.01 1.204 1.444c1.243.43.577 1.82-.197 2.248-.788.44-.645 1.78-.645 2.07 0 .28-.336 44-.336 44s-.12 1.396.98 1.834c1.11.43.133 2.494-.32 2.582-.467.095-1.113.726-1.113 2.45 0 1.72-.777 13.61 3.13 18.07 2.183 1.903 7.61 2.493 7.843 2.637.237.15 5.707 1.44 7.404 0 0 0 1.084.414 1.148.44.99.335 2.034.586 3.114.754 1.444.232 2.947.29 4.427.157 1.738-.156 3.147-.69 4.745-1.138.01-.014.04-.014.05-.02 6.555 2.362 12.646-.48 12.646-.48 1.686 1.443 7.17.145 7.4 0 .235-.14 5.673-.736 7.85-2.64 3.905-4.454 3.12-16.343 3.12-18.073 0-1.726-.645-2.342-1.097-2.436-.454-.104-1.436-2.17-.334-2.603 1.113-.423.984-1.807.984-1.807s-.336-43.724-.336-44.015c0-.29.14-1.632-.648-2.06-.77-.43-1.43-1.824-.188-2.257 1.23-.43 1.197-1.44 1.197-1.44s-.124-5.41-.016-7.63c.12-2.232-.79-2.513-.79-2.513-1.915-.946-.885-2.306-.1-2.632.78-.315.89-1.36.89-1.36s-.07-6.84-.054-7.374c.02-.54.34-1.625-.835-2.808-2.157-1.326-.104-2.4-.104-2.4.885-.218.94-1.05.94-1.05s-.055-7.98-.055-8.305c0-.32.386-1.582-.733-2.298-1.425-.716-1.13-2.125-.257-2.485.893-.354.99-1.868.99-1.868 0-5.466-.3-12.193-.93-17.55-.635-5.353-11.786-16.178-15.698-18.904-3.895-2.74-3.52-3.957-3.52-3.957l.068-1.458-21.34.238z" stroke="#36342F" stroke-width="3.075"/><path d="M4.665 155.62s30.174 2.32 60.67 0M4.25 105.506h60.756M4.828 90.863s33.2-2.464 60.66 0M4.994 77.15s26.59-2.98 60.472-.442M4.595 63.478s26.597-2.987 60.477-.433" stroke="#36342F" stroke-width="2.742"/><path d="M35.053 18.116l10.758-.238c.11-.033 2.416-3.088 2.416-3.088s-.35-5.087-.468-7.972C47.66 4.272 41.186 3.758 35 3.826c-6.186-.067-12.66.446-12.76 2.992-.117 2.885-.466 7.972-.466 7.972s2.305 3.055 2.415 3.088l10.756.238h.108z" fill="#FFF"/><path d="M35.053 18.116l10.758-.238c.11-.033 2.416-3.088 2.416-3.088s-.35-5.087-.468-7.972C47.66 4.272 41.186 3.758 35 3.826c-6.186-.067-12.66.446-12.76 2.992-.117 2.885-.466 7.972-.466 7.972s2.305 3.055 2.415 3.088l10.756.238h.108z" stroke="#36342F" stroke-width="2.742"/><path d="M18.912 180.763l2.504-5.997 2.412 5.997s-2.264-2.104-4.916 0M32.7 180.763l2.503-5.997 2.41 5.997s-2.26-2.104-4.913 0M45.475 180.763l2.504-5.997 2.41 5.997s-2.265-2.104-4.915 0" fill="#36342F"/></g></svg>