<?xml version="1.0" encoding="UTF-8" standalone="no"?><svg width="140" height="158" viewBox="0 0 140 158" xmlns="http://www.w3.org/2000/svg"><title>candy-wrapper</title><g fill="none" fill-rule="evenodd"><path d="M7.874 103.33L108.484 3.32l25.806 24.846-9.402 8.72-4.524 12.543 5.705 5.634 2.015 1.887-.787 5.228-6.323 22.027-65.782 65.853-47.32-46.73z" fill="#313131"/><path d="M1.768 109.03h9.466v9.468H20.7v9.467h9.468v9.467h9.467v9.467h9.467v9.466l8.4-8.4L10.17 100.63l-8.402 8.4z" fill="#C9AA32"/><path d="M25.276 98.392L60 133.118l36.924-36.923-1.544-8.858-14.84-1.977-.43-21.506-10.57-9.726-44.264 44.264z" fill="#50B9AD"/><path d="M110.353 71.585l16.303-16.303c-1.43-1.506-2.312-3.538-2.31-5.78 0-3.293 1.894-6.137 4.65-7.52-.976-2.927-.3-6.283 2.03-8.613 1.574-1.574 3.615-2.39 5.675-2.457l-4.17-4.17-30.278 30.28 8.1 14.562zM131.027 65.634c-2.33-2.33-3.007-5.687-2.032-8.615-.368-.185-.72-.398-1.054-.632L111.21 73.122l7.5 13.485 18.523-18.52c-2.236.068-4.495-.745-6.203-2.453M118.806 13.017L108.423 2.635 85.02 26.04l7.42 13.342 26.366-26.365zM101.397 55.484l29.938-29.938-11.333-11.333L93.295 40.92l8.102 14.564z" fill="#665C51"/><path d="M60 136.307L22.088 98.39l49.196-49.195.087.087 2.696-10.434-1.464-.827-61.128 61.13 47.563 47.563L98.8 106.95l-1.402-8.04L60 136.308z" fill="#D9C72D"/><path d="M68.04 32.122l8.95 5.06-4.164 16.12 9.64 9.06.4 20.027 14.422 1.92 4.14 23.753 17.21-18.422-36.3-65.26-14.3 7.742z" stroke="#313131" stroke-width="2.5" fill="#C9AA32"/></g></svg>