<?xml version="1.0" encoding="UTF-8" standalone="no"?><svg width="155" height="148" viewBox="0 0 155 148" xmlns="http://www.w3.org/2000/svg"><title>fruits-and-vegetables</title><g fill="none" fill-rule="evenodd"><path d="M136.827 67.88l.828-1.377-3.142-4.774-.326-9.106 5.374-11.13 3.586-3.483 4.167-1.2c1.215-.352 1.927-1.612 1.594-2.834-.098-.358-2.498-8.852-11.11-11.79-2.805-.954-5.234-1.398-7.656-1.398-2.5 0-4.702.48-7.036.99-.862.188-1.742.38-2.676.56.233-2.64.006-6.32-2.237-9.433-2.93-4.057-3.678-6.785-3.686-6.812-.16-.58-.53-1.093-1.05-1.406l-2.527-1.516c-.367-.22-.778-.328-1.192-.328-.473 0-.945.142-1.345.43l-3.204 2.293-2.378.645c-.9.245-1.566 1.005-1.687 1.93-.125.92.32 1.83 1.118 2.3l4.19 2.462 3.515 2.64c1.33 2.605 2.707 5.753 2.79 6.604l-.002 1.094c-.63-.322-1.528-.676-3.168-1.105-2.174-.567-3.84-.82-5.398-.82-1.04 0-1.904.11-2.816.226-1.048.135-2.14.275-3.755.275-6.04 0-11.638 10.682-13.208 13.955-.388.81-.273 1.773.293 2.47.446.543 1.11.848 1.795.848.186 0 .375-.022.563-.066l3.967-.997.997-.177 8.184 1.593 4.166 4.857 1.575 7.963 1.23 4.664-.74 5.153.14 3.24c-10.614 1.367-21.06 5.686-31.768 13.133-.813-2.462-1.014-6.373-.016-8.896l.133-.33-.26-.245c-1.807-1.68-3.782-3.417-6.337-4.553l-.258-.115-.238.156c-6.36 4.138-11.27 9.817-14.6 16.875-11.17-3.813-22.69-7.763-31.668-13.98 1.388-.356 2.75-.735 4.118-1.115 5.03-1.397 10.234-2.843 16.546-3.046.3.194.56.446.835.71.68.65 1.45 1.394 2.93 1.394.192 0 .392-.01.6-.04.094.925.386 2.026 1.668 2.14l.145.014.136-.066c4.853-2.4 11.03-3.834 17.004-5.217 6.546-1.518 13.318-3.09 18.187-5.94.278-.166.566-.327.862-.492 1.824-1.022 3.887-2.177 4.568-4.256l.118-.354-.298-.228c-.12-.093-.258-.172-.392-.257-.2-.12-.392-.235-.493-.374l-.156-.214h-2.187l-.148.123c-4.103 3.465-9.47 5.152-18.52 5.82-.958.07-1.964.176-2.982.282-1.835.19-3.73.39-5.426.39-.907 0-1.678-.058-2.358-.17-1.446-.24-2.963-1.096-4.57-2-1.298-.73-2.642-1.485-4.016-1.944-4.724-1.57-10.64-1.693-16.902-1.822-2.07-.043-4.17-.084-6.266-.182-.73-.033-1.468-.08-2.21-.126-1.46-.096-2.968-.192-4.437-.192-2.05 0-3.686.186-5.15.58-.808.217-1.515.737-2.332 1.337-.51.373-1.09.797-1.764 1.197-.542.32-1.052.584-1.527.83-1.868.975-3.345 1.742-3.915 4.462l-.014 4.317c.127 1.947.172 3.91.217 5.804.165 7.124.322 13.853 4.41 17.61 1.957 1.796 5.698 3.018 9.66 4.31 1.458.477 2.946.962 4.383 1.488 1.828.67 3.573 1.383 5.26 2.073 3.285 1.342 6.388 2.605 9.178 3.15 1.35.263 2.71.395 4.045.395 5.024 0 8.794-1.825 11-3.28-1.24 12.52 3.953 20.185 9.402 26.964l1.145 1.43c3.64 4.583 8.625 10.863 14.65 13.574 2.316 1.042 4.973 1.193 7.543 1.335 2.41.135 4.903.272 7.088 1.15 1.47.59 2.988 1.442 4.602 2.343 3.673 2.057 7.836 4.39 12.84 4.39.198 0 .4-.005.6-.013l4.682.003c4.33-.77 9.48-1.874 15.54-4.243l1.01-.39c3.91-1.5 9.816-3.773 10.703-7.293.348-1.395-.107-2.835-1.36-4.287l-.12-.137-.174-.035c-3-.578-6.36-.84-10.895-.84-1.87 0-3.742.045-5.604.09-1.83.038-3.643.08-5.417.08-4.055 0-8.733-.185-12.674-1.54-5.99-2.06-10.473-7.558-14.428-12.403-.574-.704-1.13-1.39-1.68-2.046-4.833-5.774-9.308-12.192-9.528-20.028.783.19 1.53.28 2.25.28 2.872 0 4.84-1.493 6.93-3.08.407-.303.818-.616 1.245-.925l1.52-1.106c5.496-4.014 11.18-8.156 19.215-9.36l-.094 1.11-1.966 5.15-.67 5.157-9.646 6.605-1.347-.575c-.294-.127-.607-.19-.917-.19-.443 0-.884.127-1.265.373-.65.427-1.044 1.148-1.052 1.926-.003.59.014 14.552 11.14 16.658 1.534.29 2.91.433 4.202.433 3.506 0 5.557-1.048 7.207-1.892 1.19-.608 1.85-.926 2.782-.926.216 0 .45.017.698.055 1.2.18 2.474.703 3.82 1.26 2.023.838 4.315 1.783 6.972 1.783 2.493 0 4.878-.82 7.297-2.512 6.508-4.555 13.243-12.326 12.77-16.935-.126-1.1-1.032-2.254-2.734-2.254-.78 0-2.323.346-3.87.924l-3.435-1.192s-1.77-4.3-2.783-5.058c-1.01-.757-5.053-5.564-5.053-5.564l.176-2.31c1.256.302 2.495.61 3.695.91 2.06.52 4.007 1.006 5.902 1.428 1.622.356 4.02.83 6.09.83 2.738 0 4.233-.846 4.444-2.512l.006-1.802c-1.346-6.533-9.876-9.565-15.975-11.383" fill="#FFF"/><path d="M136.827 67.88l.828-1.377-3.142-4.774-.326-9.106 5.374-11.13 3.586-3.483 4.167-1.2c1.215-.352 1.927-1.612 1.594-2.834-.098-.358-2.498-8.852-11.11-11.79-2.805-.954-5.234-1.398-7.656-1.398-2.5 0-4.702.48-7.036.99-.862.188-1.742.38-2.676.56.233-2.64.006-6.32-2.237-9.433-2.93-4.057-3.678-6.785-3.686-6.812-.16-.58-.53-1.093-1.05-1.406l-2.527-1.516c-.367-.22-.778-.328-1.192-.328-.473 0-.945.142-1.345.43l-3.204 2.293-2.378.645c-.9.245-1.566 1.005-1.687 1.93-.125.92.32 1.83 1.118 2.3l4.19 2.462 3.515 2.64c1.33 2.605 2.707 5.753 2.79 6.604l-.002 1.094c-.63-.322-1.528-.676-3.168-1.105-2.174-.567-3.84-.82-5.398-.82-1.04 0-1.904.11-2.816.226-1.048.135-2.14.275-3.755.275-6.04 0-11.638 10.682-13.208 13.955-.388.81-.273 1.773.293 2.47.446.543 1.11.848 1.795.848.186 0 .375-.022.563-.066l3.967-.997.997-.177 8.184 1.593 4.166 4.857 1.575 7.963 1.23 4.664-.74 5.153.14 3.24c-10.614 1.367-21.06 5.686-31.768 13.133-.813-2.462-1.014-6.373-.016-8.896l.133-.33-.26-.245c-1.807-1.68-3.782-3.417-6.337-4.553l-.258-.115-.238.156c-6.36 4.138-11.27 9.817-14.6 16.875-11.17-3.813-22.69-7.763-31.668-13.98 1.388-.356 2.75-.735 4.118-1.115 5.03-1.397 10.234-2.843 16.546-3.046.3.194.56.446.835.71.68.65 1.45 1.394 2.93 1.394.192 0 .392-.01.6-.04.094.925.386 2.026 1.668 2.14l.145.014.136-.066c4.853-2.4 11.03-3.834 17.004-5.217 6.546-1.518 13.318-3.09 18.187-5.94.278-.166.566-.327.862-.492 1.824-1.022 3.887-2.177 4.568-4.256l.118-.354-.298-.228c-.12-.093-.258-.172-.392-.257-.2-.12-.392-.235-.493-.374l-.156-.214h-2.187l-.148.123c-4.103 3.465-9.47 5.152-18.52 5.82-.958.07-1.964.176-2.982.282-1.835.19-3.73.39-5.426.39-.907 0-1.678-.058-2.358-.17-1.446-.24-2.963-1.096-4.57-2-1.298-.73-2.642-1.485-4.016-1.944-4.724-1.57-10.64-1.693-16.902-1.822-2.07-.043-4.17-.084-6.266-.182-.73-.033-1.468-.08-2.21-.126-1.46-.096-2.968-.192-4.437-.192-2.05 0-3.686.186-5.15.58-.808.217-1.515.737-2.332 1.337-.51.373-1.09.797-1.764 1.197-.542.32-1.052.584-1.527.83-1.868.975-3.345 1.742-3.915 4.462l-.014 4.317c.127 1.947.172 3.91.217 5.804.165 7.124.322 13.853 4.41 17.61 1.957 1.796 5.698 3.018 9.66 4.31 1.458.477 2.946.962 4.383 1.488 1.828.67 3.573 1.383 5.26 2.073 3.285 1.342 6.388 2.605 9.178 3.15 1.35.263 2.71.395 4.045.395 5.024 0 8.794-1.825 11-3.28-1.24 12.52 3.953 20.185 9.402 26.964l1.145 1.43c3.64 4.583 8.625 10.863 14.65 13.574 2.316 1.042 4.973 1.193 7.543 1.335 2.41.135 4.903.272 7.088 1.15 1.47.59 2.988 1.442 4.602 2.343 3.673 2.057 7.836 4.39 12.84 4.39.198 0 .4-.005.6-.013l4.682.003c4.33-.77 9.48-1.874 15.54-4.243l1.01-.39c3.91-1.5 9.816-3.773 10.703-7.293.348-1.395-.107-2.835-1.36-4.287l-.12-.137-.174-.035c-3-.578-6.36-.84-10.895-.84-1.87 0-3.742.045-5.604.09-1.83.038-3.643.08-5.417.08-4.055 0-8.733-.185-12.674-1.54-5.99-2.06-10.473-7.558-14.428-12.403-.574-.704-1.13-1.39-1.68-2.046-4.833-5.774-9.308-12.192-9.528-20.028.783.19 1.53.28 2.25.28 2.872 0 4.84-1.493 6.93-3.08.407-.303.818-.616 1.245-.925l1.52-1.106c5.496-4.014 11.18-8.156 19.215-9.36l-.094 1.11-1.966 5.15-.67 5.157-9.646 6.605-1.347-.575c-.294-.127-.607-.19-.917-.19-.443 0-.884.127-1.265.373-.65.427-1.044 1.148-1.052 1.926-.003.59.014 14.552 11.14 16.658 1.534.29 2.91.433 4.202.433 3.506 0 5.557-1.048 7.207-1.892 1.19-.608 1.85-.926 2.782-.926.216 0 .45.017.698.055 1.2.18 2.474.703 3.82 1.26 2.023.838 4.315 1.783 6.972 1.783 2.493 0 4.878-.82 7.297-2.512 6.508-4.555 13.243-12.326 12.77-16.935-.126-1.1-1.032-2.254-2.734-2.254-.78 0-2.323.346-3.87.924l-3.435-1.192s-1.77-4.3-2.783-5.058c-1.01-.757-5.053-5.564-5.053-5.564l.176-2.31c1.256.302 2.495.61 3.695.91 2.06.52 4.007 1.006 5.902 1.428 1.622.356 4.02.83 6.09.83 2.738 0 4.233-.846 4.444-2.512l.006-1.802c-1.346-6.533-9.876-9.565-15.975-11.383z" stroke="#36342F" stroke-width="2.891"/><path d="M130.298 114.154c-2.426 0-4.514-.86-6.532-1.695-1.414-.585-2.748-1.135-4.09-1.338-.306-.044-.596-.066-.87-.066-1.25 0-2.16.463-3.31 1.052-1.536.783-3.45 1.764-6.677 1.764-1.223 0-2.527-.137-3.986-.41-10.188-1.93-10.198-15.378-10.198-15.518.006-.386.202-.747.526-.958.192-.126.41-.187.63-.187.16 0 .312.03.46.092.997.43 2.065.883 2.92 1.238.482-.97 1.457-1.862 2.125-2.396.208-.16.46-.25.724-.25.082 0 .164.01.24.025.166.035 4.05.91 6.81 5.33.714 1.136 1.31 1.142 1.512 1.142 1.293 0 3.255-1.975 4.564-4.594.762-1.52 2.08-2.36 3.71-2.36 2.34 0 4.8 1.694 5.8 2.894.027.036.34.345 2.147.345.866 0 1.852-.062 2.882-.13 1.195-.075 2.45-.155 3.662-.155.46 0 .917.01 1.362.04 1.258.07 2.266.213 3.096.33.644.093 1.164.17 1.608.17.5 0 .767-.068 1.197-.737.968-1.476 5.477-3.02 7.02-3.02 1.07 0 1.52.648 1.58 1.202.38 3.695-5.244 10.96-12.283 15.883-2.214 1.55-4.38 2.304-6.63 2.304" fill="#C5233D"/><path d="M147.63 93.608c-1.642 0-6.67 1.53-7.986 3.54-.134.207-.202.267-.202.267-.357-.052-.87-.126-1.47-.208-.842-.12-1.88-.268-3.198-.343-.466-.03-.942-.04-1.43-.04-1.26 0-2.517.08-3.73.158-1.006.066-1.967.13-2.805.13-.862 0-1.266-.075-1.43-.116-1.162-1.282-3.792-3.125-6.525-3.125-2.093 0-3.777 1.066-4.744 2.997-1.297 2.6-2.985 3.956-3.527 3.956-.047-.017-.252-.16-.526-.598-3.025-4.826-7.368-5.806-7.55-5.848-.16-.035-.328-.05-.486-.05-.52 0-1.03.174-1.443.503-.633.51-1.317 1.14-1.857 1.854-.655-.274-1.355-.575-2.008-.855-.295-.127-.608-.19-.918-.19-.443 0-.884.126-1.265.373-.65.427-1.044 1.147-1.052 1.926-.004.59.013 14.55 11.14 16.657 1.533.29 2.908.433 4.2.433 3.507 0 5.56-1.05 7.208-1.893 1.19-.608 1.85-.926 2.783-.926.215 0 .447.018.697.056 1.2.18 2.473.704 3.818 1.26 2.024.84 4.317 1.784 6.973 1.784 2.493 0 4.88-.822 7.297-2.512 6.508-4.555 13.244-12.326 12.77-16.936-.126-1.1-1.032-2.254-2.734-2.254m0 2.314c.262 0 .417.052.432.175.31 3.003-4.85 9.946-11.798 14.806-2.213 1.547-4.163 2.094-5.966 2.094-3.856 0-7.006-2.503-10.448-3.02-.37-.058-.716-.083-1.04-.083-3.434 0-4.674 2.82-9.99 2.82-1.07 0-2.313-.116-3.77-.39-9.357-1.772-9.256-14.37-9.256-14.37s4.553 1.964 4.786 1.964c.03 0-.016-.038-.16-.114-1.402-.77 1.6-3.16 1.6-3.16s3.534.758 6.07 4.81c.75 1.2 1.608 1.686 2.493 1.686 2.104 0 4.352-2.74 5.598-5.237.632-1.257 1.612-1.715 2.675-1.715 1.923 0 4.097 1.498 4.908 2.476.494.592 1.608.76 3.046.76 1.86 0 4.267-.286 6.534-.286.44 0 .874.01 1.298.036 2.29.13 3.725.507 4.77.507.917 0 1.536-.287 2.172-1.265.663-1.02 4.708-2.493 6.047-2.493" fill="#36342F"/><path d="M95.794 97.955l11.913-8.154.668-5.157 1.967-5.15.646-7.65-4.3-3.538-.272-6.23.74-5.15-1.23-4.666-1.575-7.963-4.165-4.856-13.71-2.667 12.12-2.61 16.19 1.517 7.84-2.482s3.033-1.82 8.348.46c5.313 2.276 15.7.926 15.7.926l-7.112 6.91-5.372 11.13.326 9.104 3.142 4.774-2.082 3.468s-3.084 1.874-3.084 3.14c0 1.265.25 6.324.25 6.324l-.25 3.286s4.042 4.807 5.053 5.564c1.014.758 2.783 5.058 2.783 5.058l6.77 2.347s2.584 1.194-3.99 3.722c-3.28 1.263-4.02 4.38-6.606 5.012-2.59.64-7.045-1.22-7.045-1.22l-9.108.505-4.045-2.02-2.783 2.527-3.036-1.266-3.04-2.024h-4.292l-7.358-2.97z" fill="#FFF"/><path d="M86.474 37.93c-.343 0-.674-.15-.9-.426-.284-.348-.34-.827-.144-1.23.654-1.364 6.546-13.304 12.167-13.304 1.69 0 2.862-.147 3.898-.28.91-.114 1.725-.215 2.67-.215 1.455 0 3.032.24 5.11.783 2.14.556 2.902.964 3.445 1.304.043.003.086.006.136.006.288 0 .726-.07 1.49-.173.723-.1 1.712-.236 3.087-.408 2.293-.285 4.218-.707 5.92-1.077 2.366-.52 4.414-.966 6.792-.966 2.287 0 4.602.424 7.278 1.336 8.04 2.742 10.274 10.663 10.367 11 .164.608-.19 1.24-.8 1.416l-7.592 2.19c-.105.032-.214.045-.32.045l-6.37-.254c-.147-.007-.293-.038-.427-.1l-7.482-3.378c-2.355.575-5.034 1.375-5.51 1.73-1.12.84-5.936 1.294-8.706 1.494L99.117 35.42l-8.396 1.478-3.967 1c-.093.022-.187.033-.28.033" fill="#C5233D"/><path d="M130.142 20.788c-2.5 0-4.703.48-7.037.988-1.758.387-3.577.784-5.814 1.06-1.382.176-2.374.313-3.103.415-.457.06-.876.12-1.153.15-.644-.363-1.553-.763-3.47-1.265-2.175-.567-3.84-.82-5.4-.82-1.04.002-1.903.11-2.815.226-1.05.134-2.14.274-3.756.274-6.04 0-11.638 10.683-13.208 13.956-.39.81-.274 1.772.293 2.468.445.545 1.11.85 1.794.85.186 0 .375-.023.563-.066l3.967-.997 8.107-1.433 10.985 1.953c.135.024.27.035.405.035.055 0 .11 0 .165-.005 7.757-.553 8.885-1.4 9.313-1.72.468-.27 2.717-.933 4.71-1.435l7.117 3.207c.27.125.562.194.86.206l6.316.255h.095c.218 0 .432-.03.643-.09l7.596-2.19c1.216-.35 1.927-1.61 1.594-2.832-.1-.36-2.498-8.853-11.11-11.792-2.805-.953-5.234-1.397-7.656-1.397m0 2.314c1.983 0 4.164.34 6.905 1.278 7.55 2.575 9.625 10.206 9.625 10.206l-7.597 2.19-6.317-.256-7.845-3.54s-5.316 1.264-6.32 2.022c-1.015.76-8.093 1.266-8.093 1.266l-11.383-2.023-8.595 1.518-4.048 1.016s6.07-12.65 11.12-12.65c3.172 0 4.552-.495 6.57-.495 1.206 0 2.64.18 4.816.748 3.49.91 2.972 1.366 3.75 1.366.52 0 1.614-.204 4.848-.61 5.4-.67 8.59-2.032 12.564-2.032" fill="#36342F"/><path d="M115.047 28.068c-.182 0-.368-.044-.534-.13-.386-.2-.628-.596-.628-1.028V22.1c0-.89-1.55-4.443-3.034-7.32l-3.834-2.88-4.188-2.458c-.403-.235-.62-.69-.56-1.15.06-.463.392-.84.843-.964l2.58-.7 3.373-2.414c.203-.143.438-.217.674-.217.205 0 .413.055.597.167l2.528 1.518c.258.156.45.41.523.707.008.026.777 2.916 3.864 7.194 3.588 4.97 1.52 11.625 1.43 11.904-.078.24-.23.45-.44.595l-2.53 1.778c-.197.14-.432.208-.662.208" fill="#665C51"/><path d="M109.737 2.84c-.474 0-.946.144-1.345.43l-3.205 2.294-2.378.646c-.902.244-1.567 1.005-1.688 1.93-.125.918.318 1.828 1.117 2.3l4.188 2.46 3.517 2.642c1.328 2.605 2.706 5.752 2.788 6.604l-.003 4.763c0 .864.482 1.656 1.25 2.056.333.173.7.26 1.067.26.466 0 .932-.142 1.33-.42l2.532-1.777c.41-.288.72-.71.873-1.19.096-.306 2.33-7.493-1.59-12.936-2.932-4.057-3.68-6.785-3.688-6.812-.16-.58-.53-1.093-1.05-1.405L110.93 3.17c-.367-.22-.778-.33-1.19-.33zm0 2.315l2.528 1.518s.76 3.037 4.048 7.59c3.287 4.555 1.265 10.87 1.265 10.87l-2.53 1.776V22.1c0-1.77-3.288-8.094-3.288-8.094l-4.045-3.035-4.3-2.528 2.78-.756 3.542-2.535zM122.503 68.84s4.953-3.636 6.443-7.805c1.057-2.917-3.352-4.922-4.947-2.12-1.474 2.618-1.497 9.926-1.497 9.926M117.187 63.205s2.66-5.533 2.02-9.92c-.434-3.072-5.276-2.765-5.36.45-.08 3.008 3.34 9.47 3.34 9.47M121.073 87.71s2.67-5.534 2.025-9.917c-.436-3.08-5.278-2.767-5.358.447-.08 3.007 3.334 9.47 3.334 9.47" fill="#36342F"/><path d="M108.625 145.395c-4.938.002-9.07-2.314-12.718-4.355-1.616-.906-3.147-1.76-4.63-2.357-2.228-.893-4.74-1.034-7.175-1.167-2.542-.143-5.174-.29-7.446-1.31-5.966-2.686-10.93-8.938-14.554-13.5l-1.145-1.434c-5.497-6.836-10.73-14.578-9.29-27.33-2.083 1.47-5.984 3.55-11.313 3.55-1.32 0-2.665-.132-3.998-.392-2.765-.54-5.856-1.8-9.13-3.135-1.677-.69-3.436-1.403-5.27-2.075-1.438-.528-2.927-1.013-4.39-1.49-3.935-1.285-7.647-2.498-9.563-4.256-4.006-3.68-4.162-10.357-4.325-17.422-.045-1.918-.09-3.862-.214-5.78v-4.227c.55-2.655 1.908-3.36 3.787-4.342.477-.246.99-.51 1.537-.834.69-.41 1.266-.834 1.785-1.212.797-.587 1.483-1.088 2.246-1.294 1.442-.39 3.058-.572 5.08-.572 1.458 0 2.948.096 4.423.19.745.047 1.48.093 2.214.13 2.1.095 4.202.138 6.27.18 6.245.127 12.144.247 16.827 1.81 1.353.452 2.683 1.2 3.973 1.922 1.627.915 3.164 1.78 4.657 2.027.736.127 1.544.174 2.398.174 1.71 0 3.615-.197 5.454-.386 1.014-.107 2.018-.212 2.976-.283 9.108-.674 14.516-2.377 18.67-5.88l1.9-.063c.34.288.552.417.774.554.13.075.254.153.37.242-.56 2.27-2.575 3.4-4.357 4.4l-.868.49c-4.834 2.83-11.583 4.398-18.113 5.913-5.988 1.39-12.178 2.825-17.062 5.238-1.33-.084-1.53-1.237-1.595-2.15-.294.05-.572.077-.833.077-1.378 0-2.076-.67-2.75-1.323-.324-.31-.63-.605-1.01-.825-6.273.226-11.535 1.684-16.625 3.1-1.543.43-3.087.856-4.666 1.253 9.132 6.46 20.96 10.5 32.407 14.41 3.232-6.993 8.18-12.778 14.622-16.974 2.768 1.1 4.724 2.818 6.512 4.484-1.036 3.052-.728 7.224.192 9.692 12.475-8.736 24.582-13.225 37.01-13.72 1.338-.058 2.653-.083 3.954-.083 7.108 0 13.455.837 19.4 2.566 6.016 1.744 16.08 4.665 17.514 11.586l.008 1.786c-.196 1.55-1.604 2.32-4.187 2.32-2.05 0-4.424-.47-6.032-.825-1.898-.418-3.867-.914-5.897-1.423-6.237-1.573-13.303-3.35-20.408-3.35-1.737 0-3.436.106-5.055.32-8.402 1.093-14.245 5.363-19.9 9.49 0 0-2.36 1.732-2.765 2.042-2.054 1.555-3.99 3.023-6.776 3.023-.795 0-1.624-.118-2.515-.356.098 8.07 4.662 14.637 9.598 20.53.548.66 1.104 1.343 1.677 2.044 3.977 4.873 8.485 10.403 14.544 12.485 3.982 1.366 8.682 1.552 12.753 1.552 1.78 0 3.598-.04 5.425-.082 1.862-.042 3.736-.083 5.598-.083 4.522 0 7.87.255 10.85.83 1.34 1.47 1.777 2.837 1.45 4.14-.85 3.39-6.685 5.63-10.547 7.114l-1.005.39c-6.047 2.364-11.174 3.464-15.398 4.222l-5.327.013z" fill="#C9AA32"/><path d="M87.92 50.02h-2.186l-.147.125c-4.104 3.464-9.47 5.152-18.52 5.82-.958.068-1.965.175-2.983.282-1.834.19-3.73.39-5.425.39-.91 0-1.68-.06-2.36-.17-1.444-.242-2.962-1.097-4.568-2-1.3-.73-2.642-1.485-4.017-1.945-4.724-1.57-10.64-1.693-16.902-1.82-2.07-.046-4.168-.087-6.265-.185-.73-.033-1.468-.08-2.21-.126-1.46-.095-2.968-.19-4.438-.19-2.05 0-3.685.185-5.15.58-.807.216-1.514.737-2.33 1.337-.51.372-1.09.796-1.764 1.196-.542.32-1.052.584-1.527.83-1.87.975-3.347 1.742-3.916 4.463L3.2 62.922c.126 1.947.17 3.91.216 5.804.166 7.125.322 13.854 4.41 17.61 1.957 1.796 5.7 3.018 9.66 4.31 1.458.477 2.947.962 4.383 1.488 1.827.67 3.572 1.383 5.258 2.074 3.287 1.34 6.39 2.605 9.18 3.15 1.35.262 2.71.394 4.044.394 5.024 0 8.793-1.824 10.998-3.28-1.24 12.522 3.955 20.185 9.404 26.964l1.145 1.43c3.64 4.583 8.623 10.863 14.648 13.575 2.317 1.042 4.974 1.192 7.543 1.335 2.41.135 4.904.27 7.09 1.15 1.468.59 2.988 1.44 4.6 2.342 3.675 2.057 7.837 4.39 12.842 4.39.197 0 .4-.005.6-.013l4.68.003c4.33-.77 9.48-1.874 15.542-4.242l1.008-.39c3.912-1.5 9.817-3.774 10.704-7.294.348-1.393-.107-2.834-1.358-4.286l-.12-.137-.176-.035c-3-.578-6.36-.838-10.895-.838-1.87 0-3.742.043-5.605.087-1.83.04-3.643.08-5.418.08-4.054 0-8.732-.183-12.674-1.538-5.99-2.06-10.47-7.557-14.427-12.403-.574-.705-1.13-1.39-1.68-2.047-4.833-5.774-9.308-12.19-9.527-20.028.783.19 1.528.28 2.25.28 2.872 0 4.84-1.493 6.93-3.08.407-.303.817-.616 1.245-.925l1.52-1.107c5.627-4.108 11.44-8.36 19.78-9.447 1.607-.208 3.294-.314 5.018-.314 7.072 0 14.122 1.774 20.345 3.338 2.06.518 4.005 1.006 5.9 1.427 1.622.356 4.02.83 6.092.83 2.736 0 4.232-.846 4.442-2.512l.006-1.802c-1.48-7.18-11.64-10.13-17.708-11.89-5.97-1.734-12.34-2.578-19.472-2.578-1.304 0-2.626.028-3.966.083-12.386.495-24.45 4.935-36.868 13.57-.814-2.46-1.016-6.372-.017-8.894l.13-.332-.26-.244c-1.805-1.68-3.78-3.415-6.336-4.552l-.257-.115-.24.157c-6.357 4.138-11.268 9.817-14.598 16.876-11.17-3.814-22.69-7.763-31.67-13.98 1.39-.357 2.752-.735 4.12-1.116 5.03-1.397 10.234-2.843 16.545-3.045.3.194.56.446.835.71.68.65 1.45 1.393 2.93 1.393.19 0 .39-.01.598-.038.096.923.387 2.024 1.67 2.14l.145.012.135-.066c4.855-2.4 11.032-3.835 17.006-5.218 6.546-1.518 13.318-3.09 18.188-5.94.275-.165.563-.327.86-.49 1.824-1.023 3.886-2.18 4.568-4.258l.118-.353-.3-.228c-.12-.093-.257-.172-.39-.257-.2-.12-.392-.235-.493-.375l-.157-.214zm-.263.52c.24.34.666.5.99.746-.72 2.197-3.233 3.304-5.197 4.457-9.183 5.377-24.872 6.053-35.163 11.143-1.06-.1-1.175-1.134-1.236-2.23-.403.09-.76.126-1.077.126-1.91 0-2.415-1.408-3.627-2.11-8.582.25-14.94 2.726-22.03 4.46 9.283 6.724 21.237 10.784 33.172 14.86 3.326-7.243 8.21-12.924 14.607-17.09C70.552 66 72.45 67.65 74.288 69.36c-1.108 2.798-.85 7.285.246 9.903 8.38-5.905 21.012-13.218 37.142-13.862 1.334-.054 2.648-.08 3.947-.08 6.85 0 13.18.768 19.327 2.557 6.527 1.893 15.952 4.74 17.33 11.386v1.734c-.2 1.564-1.854 2.06-3.925 2.06-1.918 0-4.183-.425-5.977-.82-7.828-1.727-16.95-4.776-26.36-4.776-1.687 0-3.386.1-5.084.318-9.226 1.203-15.344 6.167-21.54 10.65-2.63 1.9-4.646 3.906-7.87 3.906-.835 0-1.75-.134-2.78-.44-.032 8.482 4.94 15.406 9.658 21.043 4.323 5.17 9.32 12.197 16.336 14.608 3.747 1.287 8.168 1.57 12.846 1.57 3.585 0 7.324-.168 11.023-.168 3.702 0 7.367.167 10.793.827 5.016 5.815-5.236 9.22-10.147 11.145-5.687 2.224-10.58 3.344-15.35 4.204h-4.7c-.195.008-.39.01-.58.01-7.03 0-12.37-4.735-17.25-6.693-4.62-1.854-10.24-.512-14.61-2.476-6.55-2.95-11.863-10.21-15.602-14.856-5.34-6.643-10.854-14.495-9.16-27.73-2.366 1.79-6.42 3.853-11.648 3.853-1.25 0-2.566-.117-3.947-.385-4.125-.805-8.896-3.2-14.356-5.2-5.298-1.94-11.297-3.33-13.872-5.696-5-4.594-3.878-14.096-4.453-23.028v-4.21c.656-3.125 2.54-3.377 5.197-4.95 1.74-1.03 2.774-2.16 3.963-2.476 1.587-.43 3.282-.56 5.015-.56 2.19 0 4.443.213 6.622.314 8.387.39 16.826-.085 23.028 1.98 2.997.997 5.91 3.5 8.666 3.958.752.13 1.573.18 2.443.18 2.658 0 5.735-.473 8.447-.673 8.757-.646 14.398-2.216 18.82-5.944h1.73z" fill="#36342F"/><path d="M63.64 69.61c-.293.12-.56.26-.74.492-1.413 1.215-3.255 3.438-4.46 5.203-3.232 4.728-5.68 11.617-5.692 18.569-.034 11.3 2.417 17.744 7.43 24.263 4.55 5.93 9.895 12.964 15.844 16.096 3.314 1.745 7.143 1.066 11.635 1.734 5.83.858 10.047 5.845 16.588 7.423 8.784 2.124 16.6-.83 23.522-3.464 4.723-1.8 10.946-2.947 11.637-7.92-1.852-2.055-5.25-1.847-8.168-1.984-10.392-.482-21.387.797-28.728-2.227-9.603-3.962-16.27-13.97-21.04-22.782-4.395-8.116-8.25-18.062-8.913-29.217-.062-1.044 1.012-4.364-1.736-3.96-1.393.2-.677 2.038-.74 2.722-.102 1.085-.19 2.207-.25 3.22-.4 6.56-1.53 14.584-.986 20.305.685 7.317 4.79 14.79 9.158 19.558 5.037 5.507 14.007 11.584 21.288 14.115 5.944 2.06 12.657 1.413 19.32 2.722-14.14 1.49-24.596-3.16-33.183-8.912-8.065-5.4-15.508-13.855-17.33-25.008-1.06-6.495.243-15.95.495-22.78.093-2.403.49-5-.496-5.942-2.7-.665-4.493 1.948-5.94 3.47-1.56 1.644-3.252 3.514-4.208 5.69-2.856 6.46-1.086 15.272-1.49 23.276-1.876-9.026-2.06-20.498 2.23-27.23 1.784-2.808 4.968-3.617 5.2-7.183-.014-.15-.036-.293-.247-.248m80.968 2.722c-14.884-7.894-35.874-7.96-52.002-1.485-3.16 1.27-6.338 2.43-9.896 4.21-4.338 2.163-10.29 5.084-6.935 9.903 11.313-5.072 24.063-15.67 40.357-16.838 11.022-.787 19.77 3.328 28.23 6.436-8.048-1.373-15.362-5.39-24.52-5.445-8.782-.052-17.22 3.733-24.264 6.93-3.327 1.516-6.174 3.086-10.15 5.453-2.356 1.4-8.79 4.626-8.912 6.684-.14 2.305 3.354 3.513 5.447 3.214 2.052-.29 3.497-2.66 5.694-4.456 1.962-1.602 4.265-3.12 5.944-4.21 3.227-2.09 9.182-5.283 14.36-6.188 8.567-1.492 17.88.343 24.757 1.98 5.672 1.352 11.068 3.678 17.336 3.223 2.83-5.117-2.076-7.62-5.445-9.41M4.96 57.967c-.617 1.245.208 3.157.246 4.46.326 10.645-.886 20.978 7.68 25.008 2.2 1.033 4.87 1.296 7.178 1.98 2.308.684 4.57 1.78 6.686 2.725 7.183 3.22 21.86 7.135 25.002-2.475-8.947-.037-16.963-3.225-24.015-6.438-7.08-3.233-13.976-7.06-18.567-12.132 12.122 8.01 25.047 15.228 43.083 17.33.343-1.716.784-3.34.99-5.197-11.588-3.142-23.475-9.168-33.18-14.605-5.797-3.257-11.748-5.534-14.11-11.395h-.747c-.01.317-.316.346-.246.74m52.988-.49c-.968 1.875 1.153 3.85-.743 4.7 5.267-1.988 14.435-.082 16.34-5.445-4.723.62-10.35 1.468-15.597.745m-11.144-.992c.208 1.852-2.838 1.77-3.463 3.22-.968 2.224.432 4.69 4.208 3.958.243.58.43 1.22.493 1.98 2.75.023 4.167-1.28 5.944-2.224-1.278-.035-3.1.69-4.21 0 .95-1.61 3.48-1.642 4.708-2.97-1.704-.53-4.003-.453-5.45-1.24 1.645-.087 3.684.22 4.952-.245-1.043-2.178-4.43-2.01-7.18-2.48m35.906-3.713c-1.68 1.958-5.104 2.16-6.442 4.456 3.638.216 7.05-1.834 9.16-3.96-.98.507-2.24.2-2.718-.496m-70.816-.247c.11 2.267-3.66 1.885-5.2 3.218-.018 2.246 1.135 3.32 2.476 4.21 8.285-4.097 21.622-5.77 33.674-4.46-12.074.222-23.37 1.234-31.946 4.956 1.124 2.686 5.037 4.69 8.422 5.94 6.376-2.706 13.615-4.54 22.78-4.456-1.593-4.234 3.928-3.048 3.958-6.44 2.694.2 5.237 1.862 7.926 1.24-9.418-5.7-27.8-5.797-42.09-4.21m117.358 88.393c-5.686 2.225-10.58 3.35-15.35 4.208H109.2c-7.31.27-12.816-4.673-17.824-6.688-4.623-1.85-10.24-.506-14.614-2.47-6.55-2.95-11.86-10.217-15.6-14.86-5.344-6.638-10.857-14.492-9.16-27.73-2.934 2.22-8.457 4.858-15.595 3.47-4.128-.81-8.897-3.197-14.36-5.2-5.293-1.945-11.293-3.334-13.868-5.695-5-4.596-3.88-14.1-4.457-23.026v-4.21c.658-3.13 2.538-3.38 5.197-4.956 1.745-1.026 2.773-2.155 3.966-2.475 3.587-.967 7.73-.427 11.637-.244 8.386.386 16.824-.087 23.025 1.98 3 1 5.912 3.498 8.666 3.96 3.058.51 7.296-.228 10.892-.494 8.76-.65 14.402-2.216 18.82-5.944h1.73c.245.337.664.498.99.742-.723 2.2-3.23 3.306-5.202 4.46-9.178 5.373-24.865 6.053-35.158 11.142-1.06-.096-1.176-1.133-1.235-2.226-2.84.61-3.292-1.167-4.703-1.983-8.582.246-14.944 2.722-22.033 4.456 9.286 6.724 21.237 10.78 33.172 14.856 3.325-7.24 8.212-12.92 14.61-17.086 2.457 1.092 4.352 2.746 6.193 4.456-1.112 2.8-.852 7.282.246 9.906 8.38-5.907 21.007-13.22 37.14-13.868 8.4-.336 15.963.355 23.274 2.477 6.524 1.892 15.952 4.746 17.327 11.39v1.73c-.378 3.012-6.168 2.063-9.9 1.242-9.227-2.036-20.262-5.912-31.446-4.46-9.225 1.204-15.34 6.168-21.536 10.648-3.31 2.395-5.65 4.956-10.65 3.47-.03 8.48 4.94 15.406 9.658 21.046 4.32 5.166 9.318 12.192 16.34 14.608 9.5 3.264 23.35.043 34.662 2.227 6.403 6.677-10.152 11.142-10.152 11.142" fill="#36342F"/></g></svg>