<?xml version="1.0" encoding="UTF-8" standalone="no"?><svg width="224" height="196" viewBox="0 0 224 196" xmlns="http://www.w3.org/2000/svg"><title>cereal-and-shoe-box</title><g fill="none" fill-rule="evenodd"><path fill="#E8813E" d="M73.21 14.58l-59 32.67v147.66l59-32.66V14.58"/><path d="M73.21 14.58l-.36-.65-59 32.67c-.24.13-.38.38-.38.65v147.66c0 .27.14.51.36.65.23.13.51.13.75.01l59-32.67c.23-.13.38-.38.38-.65V14.58c0-.26-.14-.51-.37-.64-.23-.13-.51-.14-.74-.01l.36.65h-.74v147.23l-57.51 31.84V47.69l58.62-32.45-.37-.66h-.74.74" fill="#1B1A18"/><path fill="#F7C150" d="M110.55 14.58l-59 32.67v147.66l59-32.66V14.58"/><path fill="#FFDD96" d="M78.895 144.934l-.58-19.77-5.73 14.264 2.1-17.268-7.963 10.517 4.68-14.343-9.822 6.98 7.04-11.37-11.223 3.87 9.07-8.61-12.096 1.244 10.68-6.173-12.407-.99L64.43 99.26 52.293 96.24l12.344-2.015-11.3-5.07 12.326.087-9.933-7.35 11.727 2.5-8.102-9.952 10.583 5.364-5.893-12.843 8.944 8.704-3.41-15.833 6.886 12.384-.764-18.598 4.507 16.11L82.124 49l1.916 19.48 4.507-21.808-.764 22.023 6.886-21.47-3.41 23.3 8.944-19.504-5.893 22.973 10.585-15.878-8.103 20.87L108.52 68.2l-9.933 17.04 12.324-4.614-11.298 11.742 12.344 2.085-12.136 5.435 11.786 8.68-12.406-1.292 10.678 14.55-12.097-7.803 9.072 19.16-11.22-13.495 7.038 22.146-9.82-17.89 4.677 23.35-7.96-20.697 2.097 22.844-5.73-21.833-.58 20.884-3.23-21.425"/><path d="M110.55 14.58l-.36-.65-59 32.67c-.24.13-.39.38-.39.65v147.66c0 .27.14.51.37.65.23.13.51.13.74.01l59-32.67c.24-.13.38-.38.38-.65V14.58c0-.26-.14-.51-.36-.64-.23-.13-.51-.14-.74-.01l.36.65h-.75v147.23l-57.51 31.84V47.69l58.62-32.45-.36-.66h-.75.75" fill="#1B1A18"/><path fill="#F7C150" d="M14.21 194.91h37.34V47.25H14.21"/><path d="M14.21 47.25V48H50.8v146.17H14.96V47.25h-.75V48v-.75h-.74v147.66c0 .2.08.39.22.53.13.14.33.22.52.22h37.34c.2 0 .38-.08.52-.22.15-.14.22-.33.22-.53V47.25c0-.2-.08-.39-.22-.53-.13-.14-.33-.22-.52-.22H14.21c-.19 0-.39.08-.52.22-.14.14-.22.33-.22.53h.74" fill="#1B1A18"/><path fill="#E8813E" d="M110.55 14.58H73.21l-59 32.67h37.34l59-32.67"/><path d="M110.55 14.58v-.74H73.21c-.12 0-.25.03-.36.09l-59 32.67c-.3.16-.44.51-.36.84.09.33.38.56.72.56h37.34c.12 0 .25-.04.36-.1l59-32.66c.3-.17.44-.51.36-.84-.09-.33-.38-.56-.72-.56v.74l-.36-.65L51.35 46.5H17.1l56.31-31.17h37.14v-.75l-.36-.65.36.65" fill="#1B1A18"/><path fill="#E8813E" d="M73.21 14.58v20.67l37.34-20.67H73.21"/><path d="M73.21 14.58h-.74v20.67c0 .27.14.51.36.65.23.13.51.13.75.01l37.33-20.67c.3-.17.44-.51.36-.84-.09-.33-.38-.56-.72-.56H73.21c-.19 0-.39.08-.52.21-.14.14-.22.34-.22.53h.74v.75h34.45l-33.7 18.66V14.58h-.75v.75-.75" fill="#1B1A18"/><path fill="#FFF" d="M60.58 2.38l-59 32.67 12.63 12.2 59-32.67-12.63-12.2"/><path d="M60.58 2.38l-.36-.65-59 32.67c-.21.11-.35.32-.38.55-.03.24.05.47.22.64l12.63 12.2c.24.22.6.27.89.11l59-32.66c.2-.12.34-.33.37-.56.03-.24-.05-.47-.22-.63L61.1 1.85c-.24-.23-.59-.28-.88-.12l.36.65-.52.54 11.91 11.5-57.64 31.91-11.5-11.12L60.94 3.04l-.36-.66-.52.54.52-.54M110.55 14.58l-59 32.67 13.23 13.47 45.77-25.34v-20.8" fill="#1B1A18"/><path d="M110.55 14.58l-.36-.65-59 32.67c-.21.11-.35.31-.38.54-.04.23.04.46.2.63l13.24 13.48c.23.24.6.29.89.13l45.77-25.34c.24-.14.38-.39.38-.66v-20.8c0-.26-.14-.51-.36-.64-.23-.13-.51-.14-.74-.01l.36.65h-.75v20.36L64.91 59.8 52.77 47.43l58.14-32.19-.36-.66h-.75.75" fill="#1B1A18"/><path fill="#1B1A18" d="M51.55 47.25l-7.84 14.67h-29.5v-7.34"/><path d="M50.89 46.9l-7.62 14.27H14.96v-6.59c0-.41-.33-.74-.75-.74-.41 0-.74.33-.74.74v7.34c0 .19.08.38.22.52.13.14.33.22.52.22h29.5c.28 0 .53-.15.66-.39l7.84-14.67c.19-.36.05-.82-.31-1.01-.37-.19-.82-.06-1.01.31" fill="#1B1A18"/><path fill="#FFF" d="M110.55 14.58l-59 32.67L65.4 58.12l59-32.67-13.85-10.87"/><path d="M110.55 14.58l-.36-.65-59 32.67c-.22.12-.37.34-.39.59-.02.25.09.49.29.65L64.94 58.7c.23.19.56.21.82.07l59-32.67c.22-.12.36-.34.38-.59.02-.25-.09-.49-.28-.65L111.01 14c-.24-.19-.56-.22-.82-.07l.36.65-.46.59 12.96 10.17-57.58 31.88-12.58-9.86 58.02-32.12-.36-.66-.46.59.46-.59" fill="#1B1A18"/><path fill="#FFF" d="M3.88 60.25h37l10.67-13h-37l-10.67 13"/><path d="M3.88 60.25V61h37c.22 0 .43-.1.58-.28l10.66-13c.19-.22.22-.53.1-.79s-.39-.43-.67-.43h-37c-.23 0-.44.1-.58.28l-10.67 13c-.18.22-.22.53-.09.79.12.26.38.43.67.43v-.75l.58.47L14.9 48h35.07l-9.44 11.5H3.88v.75l.58.47-.58-.47" fill="#1B1A18"/><path fill="#FFF" d="M118.21 1.58H80.88l-7.67 13h37.34l7.66-13"/><path d="M118.21 1.58V.84H80.88c-.26 0-.51.14-.64.36l-7.67 13c-.14.23-.14.52 0 .75.13.24.37.38.64.38h37.34c.26 0 .51-.14.64-.37l7.67-13c.13-.23.14-.51 0-.75-.13-.23-.38-.37-.65-.37v.74l-.64-.38-7.45 12.64h-35.6l6.79-11.51h36.9v-.75l-.64-.38.64.38" fill="#1B1A18"/><path fill="#B2D8E9" d="M59.88 194.91H194.1v-43.79H59.88"/><path d="M194.1 194.91v-.74H60.63v-42.31h132.72v43.05h.75v-.74.74h.74v-43.79c0-.2-.08-.39-.22-.53-.13-.14-.33-.22-.52-.22H59.88c-.2 0-.39.08-.53.22s-.22.33-.22.53v43.79c0 .2.08.39.22.53s.33.22.53.22H194.1c.2 0 .38-.08.52-.22.15-.14.22-.33.22-.53h-.74" fill="#1B1A18"/><path fill="#2AA9D5" d="M194.1 194.91l26.93-17.33v-39.65l-26.93 17.33v39.65"/><path d="M194.1 194.91l.4.63 26.94-17.33c.21-.14.34-.38.34-.63v-39.65c0-.27-.15-.52-.39-.66-.24-.13-.53-.12-.76.03l-26.94 17.33c-.21.14-.34.38-.34.63v39.65c0 .28.15.53.39.66.24.13.53.12.76-.03l-.4-.63h.74v-39.24l25.45-16.37-.01 37.87-26.59 17.12.41.62h.74-.74" fill="#1B1A18"/><path fill="#B2D8E9" d="M222.73 124.25H85.69l-27.51 17.7h137.05l27.5-17.7"/><path d="M222.73 124.25v-.75H85.69c-.15 0-.29.04-.41.12l-27.5 17.7c-.28.18-.4.52-.31.84.09.32.38.53.71.53h137.05c.14 0 .28-.04.4-.12l27.5-17.69c.28-.18.41-.52.31-.84-.09-.32-.38-.54-.71-.54v.75l-.41-.63-27.31 17.58H60.72L85.91 125h136.82v-.75l-.41-.63.41.63" fill="#1B1A18"/><path fill="#3D73AC" d="M194.1 157.31l26.93-17.5v-14.34l-26.93 17.34v14.5"/><path d="M194.1 157.31l.4.62 26.94-17.5c.21-.14.34-.37.34-.62v-14.34c0-.27-.15-.52-.39-.65-.24-.13-.53-.12-.76.02l-26.94 17.34c-.21.14-.34.37-.34.63v14.5c0 .27.15.52.39.65.24.13.53.12.76-.03l-.4-.62h.74v-14.1l25.45-16.37-.01 12.56-26.59 17.28.41.63h.74-.74" fill="#1B1A18"/><path fill="#1B1A18" d="M59.88 159.08H194.1v-14.5H59.88"/><path d="M59.88 144.58h-.75v14.5c0 .2.08.39.22.53s.33.22.53.22H194.1c.2 0 .38-.08.52-.22.15-.14.22-.33.22-.53v-14.5c0-.19-.08-.39-.22-.52-.13-.14-.33-.22-.52-.22H59.88c-.2 0-.39.08-.53.22-.14.13-.22.33-.22.52h.75v.75h133.47v13.01H60.63v-13.76h-.75v.75-.75" fill="#1B1A18"/><path fill="#1B1A18" d="M194.1 159.08l26.93-17.5v-14.33l-26.93 17.33v14.5"/><path d="M194.1 159.08l.4.63 26.94-17.5c.21-.14.34-.37.34-.63v-14.33c0-.27-.15-.52-.39-.66-.24-.13-.53-.12-.76.03l-26.94 17.34c-.21.13-.34.37-.34.62v14.5c0 .28.15.53.39.66.24.13.53.12.76-.03l-.4-.63h.74v-14.09l25.45-16.37-.01 12.56-26.59 17.28.41.62h.74-.74" fill="#1B1A18"/><path fill="#B2D8E9" d="M58.18 156.75h137.05v-14.8H58.18"/><path d="M58.18 141.95h-.74v14.8c0 .2.08.39.22.53s.33.22.52.22h137.05c.19 0 .38-.08.52-.22s.22-.33.22-.53v-14.8c0-.2-.08-.39-.22-.53s-.33-.22-.52-.22H58.18c-.19 0-.38.08-.52.22s-.22.33-.22.53h.74v.74h136.3v13.32H58.93v-14.06h-.75v.74-.74" fill="#1B1A18"/><path fill="#B2D8E9" d="M195.23 156.75l27.5-17.87v-14.63l-27.5 17.7v14.8"/><path d="M195.23 156.75l.4.63 27.5-17.87c.21-.14.34-.37.34-.63v-14.63c0-.27-.15-.52-.39-.66-.24-.13-.53-.12-.76.03l-27.5 17.7c-.21.14-.34.37-.34.63v14.8c0 .28.15.53.39.66.24.13.53.12.76-.03l-.4-.63h.74v-14.4l26.01-16.73v12.86l-27.16 17.65.41.62h.74-.74" fill="#1B1A18"/><path fill="#000" d="M105.177 159L86 195H74l19.177-36M124.177 159L105 195H93l19.177-36"/></g></svg>