<?xml version="1.0" encoding="UTF-8" standalone="no"?><svg width="142" height="163" viewBox="0 0 142 163" xmlns="http://www.w3.org/2000/svg"><title>coffee-cups-and-lids</title><g fill="none" fill-rule="evenodd"><path d="M53.357 3.493C24.39 3.493 4.73 13.915 4.73 26.773c0 0 17.522 90.954 20.794 105.133 4.743 20.548 55.906 22.082 59.695 0 2.973-17.328 16.766-105.134 16.766-105.134 0-12.857-18.318-23.28-48.63-23.28" fill="#C5233D"/><path d="M53.357 3.493C24.39 3.493 4.73 13.915 4.73 26.773c0 0 17.522 90.954 20.794 105.133 4.743 20.548 55.906 22.082 59.695 0 2.973-17.328 16.766-105.134 16.766-105.134 0-12.857-18.318-23.28-48.63-23.28z" stroke="#36342F" stroke-width="3.937"/><path d="M97.466 54.684c-10.83 5.856-26.6 9.543-44.157 9.543-17.245 0-32.766-3.556-43.574-9.232" stroke="#36342F" stroke-width="2.46"/><path d="M101.986 26.772c0 12.856-22.08 22.117-48.63 22.117-26.55 0-48.628-9.262-48.628-22.118 0-12.857 19.66-23.28 48.63-23.28 30.31 0 48.628 10.423 48.628 23.28" fill="#665C51"/><path d="M101.986 26.772c0 12.856-22.08 22.117-48.63 22.117-26.55 0-48.628-9.262-48.628-22.118 0-12.857 19.66-23.28 48.63-23.28 30.31 0 48.628 10.423 48.628 23.28z" stroke="#36342F" stroke-width="2.46"/><path d="M53.357 44.255c-23.19 0-42.783-8.02-42.783-17.51 0-9.153 16.003-18.62 42.783-18.62 28.088 0 42.784 9.367 42.784 18.62 0 9.49-19.59 17.51-42.783 17.51" fill="#0A0B09"/><path d="M53.357 44.255c-23.19 0-42.783-8.02-42.783-17.51 0-9.153 16.003-18.62 42.783-18.62 28.088 0 42.784 9.367 42.784 18.62 0 9.49-19.59 17.51-42.783 17.51zM92.455 80.683c-9.59 5.856-23.56 9.543-39.113 9.543-15.274 0-29.02-3.557-38.595-9.232" stroke="#36342F" stroke-width="2.46"/><path d="M129.938 109.012c6.7 23.746 1.29 46.056-12.083 49.83-13.374 3.772-29.647-12.418-36.346-36.164-6.7-23.748-1.29-46.056 12.082-49.83 13.373-3.773 29.647 12.42 36.346 36.164" fill="#FFF"/><path d="M129.938 109.012c6.7 23.746 1.29 46.056-12.083 49.83-13.374 3.772-29.647-12.418-36.346-36.164-6.7-23.748-1.29-46.056 12.082-49.83 13.373-3.773 29.647 12.42 36.346 36.164" stroke="#36342F" stroke-width="3.711"/><path d="M129.938 109.012c6.7 23.746 1.29 46.056-12.083 49.83-13.374 3.772-29.647-12.418-36.346-36.164-6.7-23.748-1.29-46.056 12.082-49.83 13.373-3.773 29.647 12.42 36.346 36.164" fill="#665C51"/><path d="M129.938 109.012c6.7 23.746 1.29 46.056-12.083 49.83-13.374 3.772-29.647-12.418-36.346-36.164-6.7-23.748-1.29-46.056 12.082-49.83 13.373-3.773 29.647 12.42 36.346 36.164z" stroke="#36342F" stroke-width="3.937"/><path d="M119.204 152.363c-11.742 2.935-25.824-10.82-31.663-31.504-5.835-20.686-1.12-40.12 10.528-43.408l11.863-.53 19.84 69.36s-2.452 4.05-10.566 6.08" fill="#FFF"/><path d="M119.204 152.363c-11.742 2.935-25.824-10.82-31.663-31.504-5.835-20.686-1.12-40.12 10.528-43.408l11.863-.53 19.84 69.36s-2.452 4.05-10.566 6.08" stroke="#36342F" stroke-width="3.711"/><path d="M129.77 146.283s-2.453 4.05-10.566 6.08C107.462 155.3 93.38 141.546 87.54 120.86c-5.835-20.686-1.122-40.12 10.528-43.407l11.863-.53" fill="#665C51"/><path d="M129.77 146.283s-2.453 4.05-10.566 6.08C107.462 155.3 93.38 141.546 87.54 120.86c-5.835-20.686-1.122-40.12 10.528-43.407l11.863-.53" stroke="#36342F" stroke-width="2.46"/><path d="M134.5 107.828c5.48 19.42 1.88 37.435-8.043 40.235-9.922 2.8-22.407-10.676-27.887-30.097-5.48-19.422-1.878-37.436 8.044-40.235 9.922-2.798 22.41 10.676 27.887 30.098" fill="#FFF"/><path d="M134.5 107.828c5.48 19.42 1.88 37.435-8.043 40.235-9.922 2.8-22.407-10.676-27.887-30.097-5.48-19.422-1.878-37.436 8.044-40.235 9.922-2.798 22.41 10.676 27.887 30.098" stroke="#36342F" stroke-width="3.711"/><path d="M134.5 107.828c5.48 19.42 1.88 37.435-8.043 40.235-9.922 2.8-22.407-10.676-27.887-30.097-5.48-19.422-1.878-37.436 8.044-40.235 9.922-2.798 22.41 10.676 27.887 30.098" fill="#665C51"/><path d="M134.5 107.828c5.48 19.42 1.88 37.435-8.043 40.235-9.922 2.8-22.407-10.676-27.887-30.097-5.48-19.422-1.878-37.436 8.044-40.235 9.922-2.798 22.41 10.676 27.887 30.098z" stroke="#36342F" stroke-width="3.937"/><path d="M129.14 109.487c3.822 13.544 1.356 26.147-5.465 28.073-6.823 1.925-14.582-7.582-18.404-21.126-3.82-13.546-2.257-26 4.565-27.924 6.823-1.925 15.485 7.432 19.306 20.977" fill="#665C51"/><path d="M129.14 109.487c3.822 13.544 1.356 26.147-5.465 28.073-6.823 1.925-14.582-7.582-18.404-21.126-3.82-13.546-2.257-26 4.565-27.924 6.823-1.925 15.485 7.432 19.306 20.977z" stroke="#36342F" stroke-width="2.46"/><path d="M115.812 114.614c1.212 4.3.43 8.3-1.734 8.91-2.166.61-4.63-2.406-5.843-6.706-1.212-4.3-.716-8.25 1.45-8.862 2.165-.612 4.914 2.358 6.127 6.657" fill="#36342F"/><path d="M115.812 114.614c1.212 4.3.43 8.3-1.734 8.91-2.166.61-4.63-2.406-5.843-6.706-1.212-4.3-.716-8.25 1.45-8.862 2.165-.612 4.914 2.358 6.127 6.657z" stroke="#36342F" stroke-width="2.46"/><path d="M12.59 57.38l4.674 24.06s14.916 7.12 32.105 7.777c15.453.59 30.29-4.02 30.29-4.02s2.472-6.49 6.18-9.89c3.71-3.4 7.11-4.326 7.11-4.326l2.472-14.216s-19.163 8.652-41.107 8.652c-24.727 0-41.726-8.035-41.726-8.035" fill="#665C51"/></g></svg>