<?xml version="1.0" encoding="UTF-8" standalone="no"?><svg width="150" height="111" viewBox="0 0 150 111" xmlns="http://www.w3.org/2000/svg"><title>tea-bags</title><g fill="none" fill-rule="evenodd"><path d="M28.547 23.642c-.107-4.3-7.674-15.66 3.66-21.145 12.647-6.123 24.365 19.19 41.526 11.29 13.973-6.58 25.45 1.797 19.22 16.299-9.84 22.883-6.194 25.21 15.714 28.88" stroke="#7F7064" stroke-width="1.381"/><path d="M6.962 21.155L2.51 39.932l14.995 69.49 3.514-4.462 5.395 3.284 31.402-84.98L41.882 11.53l-34.92 9.625z" fill="#50B9AD"/><path d="M26.414 108.244l-5.396-3.284-3.51 4.46L2.51 39.93l4.455-18.777 34.92-9.625 15.932 11.736" stroke="#36342F" stroke-width="1.381" stroke-linejoin="round"/><path d="M2.42 39.739c0-.002 22.758 60.962 23.936 68.23l52.8-20.165L57.798 23.09 2.42 39.74z" fill="#3C8C83"/><path d="M2.42 39.739c0-.002 22.758 60.962 23.936 68.23l52.8-20.165L57.798 23.09 2.42 39.74zm21.41-15.142l10.895-3.048-10.896 3.048z" stroke="#36342F" stroke-width="1.381" stroke-linejoin="bevel"/><path d="M111.29 37.942l36.29 13.536-11.627 35.247-41.948-13.867 17.285-34.916z" fill="#D9C72D"/><path d="M111.33 37.942l36.29 13.536-11.667 35.247-41.948-13.867 17.325-34.916zm-.977 14.894l-4.06 9.112 4.06-9.112z" stroke="#36342F" stroke-width="1.381"/></g></svg>