<?xml version="1.0" encoding="UTF-8" standalone="no"?><svg width="137" height="136" viewBox="0 0 137 136" xmlns="http://www.w3.org/2000/svg"><title>food-cans-and-tins</title><g fill="none" fill-rule="evenodd"><path d="M132.094 64.225l.606 7.66c0 7.685-16.997 13.915-37.966 13.915-20.967 0-37.966-6.23-37.966-13.915l.607-7.66-.607-29.344c0-7.684 17-13.914 37.966-13.914 20.97 0 37.966 6.23 37.966 13.915l-.606 29.345z" fill="#90293E"/><path d="M132.094 64.225l.606 7.66c0 7.685-16.997 13.915-37.966 13.915-20.967 0-37.966-6.23-37.966-13.915l.607-7.66-.607-29.344c0-7.684 17-13.914 37.966-13.914 20.97 0 37.966 6.23 37.966 13.915l-.606 29.345z" stroke="#36342F" stroke-width="2.772"/><path d="M57.375 64.83c0 7.687 16.392 13.917 37.36 13.917s37.36-6.23 37.36-13.916V45.368l.606-10.485H56.77l.605 10.485V64.83z" fill="#C5233D"/><path d="M57.375 64.83c0 7.687 16.392 13.917 37.36 13.917s37.36-6.23 37.36-13.916V45.368l.606-10.485H56.77l.605 10.485V64.83z" stroke="#36342F" stroke-width="1.732"/><path d="M56.768 41.936c0 7.685 17 13.915 37.966 13.915 20.97 0 37.966-6.23 37.966-13.914v-7.054H56.768v7.054z" fill="#90293E"/><path d="M56.768 41.936c0 7.685 17 13.915 37.966 13.915 20.97 0 37.966-6.23 37.966-13.914v-7.054H56.768v7.054z" stroke="#36342F" stroke-width="1.732"/><path d="M131.825 34.882c0 7.51-16.605 13.595-37.09 13.595-20.484 0-37.09-6.086-37.09-13.595 0-7.508 16.606-13.595 37.09-13.595 20.485 0 37.09 6.087 37.09 13.595" fill="#7F7064"/><path d="M131.825 34.882c0 7.51-16.605 13.595-37.09 13.595-20.484 0-37.09-6.086-37.09-13.595 0-7.508 16.606-13.595 37.09-13.595 20.485 0 37.09 6.087 37.09 13.595z" stroke="#36342F" stroke-width="1.732"/><path d="M132.7 34.882c-2.76 7.173-20.86 6.88-40.43-.65C72.7 26.697 59.076 14.777 61.837 7.604c2.76-7.173 20.863-6.88 40.43.652 19.57 7.532 33.194 19.453 30.433 26.625" fill="#90293E"/><path d="M132.7 34.882c-2.76 7.173-20.86 6.88-40.43-.65C72.7 26.697 59.076 14.777 61.837 7.604c2.76-7.173 20.863-6.88 40.43.652 19.57 7.532 33.194 19.453 30.433 26.625z" stroke="#36342F" stroke-width="1.732"/><path d="M105.967 94.665c-2.625-3.477-8.272-5.26-19.49-6.15-4.383-.35-13.244-.975-22.648-1.623 3.594-3.802 9.467-16.805 9.467-25.344 0-9.364-11.205-16.884-19.032-16.884 0 0-1.572 2.718-4.23 5.74 0 0-7.128-8.656-14.188-9.27-7.06-.614-17.65 6.876-12.432 9.27 4.75 2.18 11.796 5.54 21.007 5.088-2.54 1.74-5.445 2.986-8.575 2.986-1.69 0-.92 2.3-.307 4.297.614 1.995 1.995 13.967 1.995 19.032 0 .805-.16 1.93-.464 3.27l-6.564-.442-.117-.005c-.482-.013-.95-.02-1.408-.02-3.915 0-8.85.445-12.3 3.915-.596.6-1.426 1.393-2.384 2.31-3 2.87-7.105 6.8-9.7 10.098-1.328 1.688-1.655 3.695-.898 5.504.815 1.947 2.812 3.374 5.116 4.416.276 1.475.825 4.633.94 7.022.153 3.224 1.073 7.52 10.436 8.903 9.362 1.38 54.18 6.29 59.397 6.29 5.217 0 18.57-1.994 19.798-7.826.69-3.28 1.287-6.654 1.677-8.98 1.268-.83 2.237-1.787 2.71-2.85 1.055-2.375 2.427-7.353 3.497-12.683.45-2.242-.002-4.34-1.305-6.065" fill="#7F7064"/><path d="M105.967 94.665c-2.625-3.477-8.272-5.26-19.49-6.15-4.383-.35-13.244-.975-22.648-1.623 3.594-3.802 9.467-16.805 9.467-25.344 0-9.364-11.205-16.884-19.032-16.884 0 0-1.572 2.718-4.23 5.74 0 0-7.128-8.656-14.188-9.27-7.06-.614-17.65 6.876-12.432 9.27 4.75 2.18 11.796 5.54 21.007 5.088-2.54 1.74-5.445 2.986-8.575 2.986-1.69 0-.92 2.3-.307 4.297.614 1.995 1.995 13.967 1.995 19.032 0 .805-.16 1.93-.464 3.27l-6.564-.442-.117-.005c-.482-.013-.95-.02-1.408-.02-3.915 0-8.85.445-12.3 3.915-.596.6-1.426 1.393-2.384 2.31-3 2.87-7.105 6.8-9.7 10.098-1.328 1.688-1.655 3.695-.898 5.504.815 1.947 2.812 3.374 5.116 4.416.276 1.475.825 4.633.94 7.022.153 3.224 1.073 7.52 10.436 8.903 9.362 1.38 54.18 6.29 59.397 6.29 5.217 0 18.57-1.994 19.798-7.826.69-3.28 1.287-6.654 1.677-8.98 1.268-.83 2.237-1.787 2.71-2.85 1.055-2.375 2.427-7.353 3.497-12.683.45-2.242-.002-4.34-1.305-6.065z" stroke="#36342F" stroke-width="2.772"/><path d="M8.655 110.023s.947 4.63 1.1 7.852c.153 3.223 1.074 7.52 10.437 8.902 9.363 1.38 54.18 6.293 59.398 6.293 5.218 0 18.57-1.995 19.8-7.828 1.227-5.832 2.16-11.968 2.16-11.968l-92.894-3.25z" fill="#D9C72D"/><path d="M8.655 110.023s.947 4.63 1.1 7.852c.153 3.223 1.074 7.52 10.437 8.902 9.363 1.38 54.18 6.293 59.398 6.293 5.218 0 18.57-1.995 19.8-7.828 1.227-5.832 2.16-11.968 2.16-11.968l-92.894-3.25z" stroke="#36342F" stroke-width="1.732"/><path d="M88.69 119.57c-.19 0-.378 0-.566-.006-5.924-.152-63.938-5.55-69.138-6.13-2.165-.24-13.075-1.715-15.286-6.997-.757-1.81-.43-3.815.9-5.504 2.593-3.298 6.7-7.228 9.698-10.097.958-.917 1.788-1.71 2.384-2.31 3.45-3.47 8.385-3.917 12.3-3.917.457 0 .926.007 1.407.02l.116.006c.44.03 44.243 2.946 55.97 3.88 11.22.89 16.866 2.672 19.49 6.15 1.304 1.726 1.756 3.823 1.306 6.064-1.07 5.33-2.442 10.308-3.498 12.683-1.638 3.683-9.122 6.158-15.084 6.158" fill="#C9AA32"/><path d="M88.69 119.57c-.19 0-.378 0-.566-.006-5.924-.152-63.938-5.55-69.138-6.13-2.165-.24-13.075-1.715-15.286-6.997-.757-1.81-.43-3.815.9-5.504 2.593-3.298 6.7-7.228 9.698-10.097.958-.917 1.788-1.71 2.384-2.31 3.45-3.47 8.385-3.917 12.3-3.917.457 0 .926.007 1.407.02l.116.006c.44.03 44.243 2.946 55.97 3.88 11.22.89 16.866 2.672 19.49 6.15 1.304 1.726 1.756 3.823 1.306 6.064-1.07 5.33-2.442 10.308-3.498 12.683-1.638 3.683-9.122 6.158-15.084 6.158z" stroke="#36342F" stroke-width="1.732"/><path d="M30.298 87.748s44.087 2.934 55.93 3.876c11.845.94 19.082 3.03 17.986 8.492-1.096 5.463-2.413 10.057-3.29 12.03-.877 1.972-7.018 4.447-12.72 4.3-5.704-.146-63.61-5.523-68.873-6.11-5.263-.59-15.57-3.292-12.28-7.475 3.29-4.182 9.43-9.707 11.843-12.135 2.413-2.428 6.14-3.13 11.405-2.977" fill="#7F7064"/><path d="M30.298 87.748s44.087 2.934 55.93 3.876c11.845.94 19.082 3.03 17.986 8.492-1.096 5.463-2.413 10.057-3.29 12.03-.877 1.972-7.018 4.447-12.72 4.3-5.704-.146-63.61-5.523-68.873-6.11-5.263-.59-15.57-3.292-12.28-7.475 3.29-4.182 9.43-9.707 11.843-12.135 2.413-2.428 6.14-3.13 11.405-2.977z" stroke="#36342F" stroke-width="1.732"/><path d="M34.194 98.84s54.867 5.19 57.552 5.434c2.685.245 11.385.698 10.063 5.055" stroke="#36342F" stroke-width="1.386" stroke-linejoin="round"/><path d="M21.113 110.023s38.37-20.21 41.747-22.295c3.377-2.084 10.437-16.818 10.437-26.18 0-9.363-11.204-16.884-19.032-16.884 0 0-7.98 13.814-18.418 13.814-1.687 0-.92 2.302-.307 4.297.615 1.996 1.996 13.967 1.996 19.032 0 5.065-6.14 22.513-16.423 28.216" fill="#665C51"/><path d="M21.113 110.023s38.37-20.21 41.747-22.295c3.377-2.084 10.437-16.818 10.437-26.18 0-9.363-11.204-16.884-19.032-16.884 0 0-7.98 13.814-18.418 13.814-1.687 0-.92 2.302-.307 4.297.615 1.996 1.996 13.967 1.996 19.032 0 5.065-6.14 22.513-16.423 28.216z" stroke="#36342F" stroke-width="1.732" stroke-linecap="round" stroke-linejoin="round"/><path d="M37.647 44.567s-4.21-1.745-8.734 1.55c-4.233 3.08 2.96 5.226 6.19 3.982 3.226-1.246 5.98-4.362 2.544-5.533M40.842 47.604l-3.944 3.7s6.745 1.293 7.824 1.293c1.078 0 .94-3.41-3.88-4.993" fill="#36342F"/></g></svg>