<?xml version="1.0" encoding="UTF-8" standalone="no"?><svg width="114" height="156" viewBox="0 0 114 156" xmlns="http://www.w3.org/2000/svg"><title>wine-and-beer-bottles</title><g fill="none" fill-rule="evenodd"><path d="M36.9 77.11c-3.62-3.97-5.83-9.02-5.83-14.39V45.08c0-.54-.21-1.04-.55-1.4-.26-.29-.42-.66-.42-1.05v-2.97c0-.84-.68-1.52-1.52-1.52H15.14c-.84 0-1.52.68-1.52 1.52v2.97c0 .39-.16.76-.42 1.05-.34.36-.55.86-.55 1.4v17.64c0 5.37-2.21 10.42-5.83 14.39-3.31 3.62-5.33 8.43-5.33 13.72v56.81c0 4.19 3.39 7.58 7.58 7.58h25.58c4.19 0 7.58-3.39 7.58-7.58V90.83c0-5.29-2.02-10.1-5.33-13.72" fill="#66462B"/><path d="M36.9 77.11l.56-.5c-3.52-3.85-5.65-8.72-5.65-13.89V45.08c0-.74-.28-1.41-.74-1.91-.15-.17-.22-.35-.22-.54v-2.97c-.01-1.25-1.02-2.26-2.27-2.26H15.14c-1.25 0-2.27 1.01-2.27 2.26v2.97c0 .19-.07.37-.22.54-.46.5-.75 1.17-.75 1.91v17.64c0 5.17-2.12 10.04-5.64 13.89C2.84 80.35.74 85.34.74 90.83v56.81c0 4.6 3.73 8.33 8.33 8.33h25.58c4.6 0 8.33-3.73 8.33-8.33V90.83c0-5.49-2.1-10.48-5.52-14.22l-.56.5-.55.5c3.19 3.49 5.13 8.12 5.14 13.22v56.81c-.01 1.89-.77 3.6-2.01 4.84-1.23 1.23-2.94 2-4.83 2H9.07c-1.89 0-3.6-.77-4.83-2-1.24-1.24-2.01-2.95-2.01-4.84V90.83c0-5.1 1.95-9.73 5.14-13.22 3.73-4.08 6.03-9.31 6.03-14.89V45.08c0-.35.13-.66.35-.9.37-.41.62-.95.62-1.55v-2.97c0-.43.34-.77.77-.77h13.44c.43 0 .77.34.77.77v2.97c0 .6.25 1.14.62 1.55.22.24.35.55.35.9v17.64c0 5.58 2.3 10.81 6.03 14.89l.55-.5" fill="#1B1A18"/><path d="M30.1 42.63H19.6" fill="#66462B"/><path d="M30.1 41.89H19.6c-.41 0-.75.33-.75.74 0 .42.34.75.75.75h10.5c.41 0 .75-.33.75-.75 0-.41-.34-.74-.75-.74" fill="#1B1A18"/><path d="M70.71 38.14V3.18c0-1.07-.86-1.93-1.93-1.93H53.41c-1.07 0-1.94.86-1.94 1.93v34.96c-9.09 3.78-15.49 12.74-15.49 23.2v84.07c0 5.42 4.03 9.81 8.98 9.81h32.27c4.95 0 8.97-4.39 8.97-9.81V61.34c0-10.46-6.39-19.42-15.49-23.2" fill="#612629"/><path d="M70.71 38.14h.75V3.18c0-1.48-1.2-2.68-2.68-2.68H53.41c-1.48 0-2.68 1.2-2.68 2.68v34.96h.74l-.28-.69c-9.37 3.89-15.95 13.12-15.95 23.89v84.07c0 2.89 1.07 5.53 2.82 7.44 1.75 1.92 4.2 3.12 6.9 3.12h32.27c2.7 0 5.14-1.2 6.89-3.12 1.76-1.91 2.83-4.55 2.83-7.44V61.34c0-10.77-6.59-20-15.95-23.89l-.29.69h.75-.75l-.28.69c8.82 3.67 15.03 12.36 15.03 22.51v84.07c0 2.52-.94 4.8-2.44 6.43-1.5 1.64-3.54 2.64-5.79 2.64H44.96c-2.25 0-4.29-1-5.8-2.64-1.49-1.63-2.43-3.91-2.43-6.43V61.34c0-10.15 6.21-18.84 15.03-22.51.28-.11.46-.39.46-.69V3.18c0-.65.53-1.18 1.19-1.19h15.37c.66.01 1.18.53 1.19 1.19v34.96c0 .3.18.58.46.69l.28-.69" fill="#1B1A18"/><path d="M70.71 9.64h-7.45" fill="#6DBEDC"/><path d="M70.71 8.89h-7.45c-.41 0-.75.33-.75.75 0 .41.34.74.75.74h7.45c.41 0 .75-.33.75-.74 0-.42-.34-.75-.75-.75" fill="#1B1A18"/><path d="M66.99 10.38c.85 0 1.43.14 1.82.34.29.15.48.32.64.53.23.31.37.74.44 1.26s.08 1.11.08 1.71c0 .41.33.75.74.75s.75-.34.75-.75c-.01-1.07.03-2.32-.55-3.44-.3-.56-.78-1.07-1.44-1.4-.66-.33-1.47-.49-2.48-.49-.42 0-.75.33-.75.75 0 .41.33.74.75.74" fill="#1B1A18"/><path d="M70.71 38.14h-7.45" fill="#6DBEDC"/><path d="M70.71 37.4h-7.45c-.41 0-.75.33-.75.74s.34.75.75.75h7.45c.41 0 .75-.34.75-.75s-.34-.74-.75-.74" fill="#1B1A18"/><path fill="#4D587D" d="M35.98 138.61H86.2V61.34H35.98"/><path d="M86.2 138.61v-.75H36.73V62.08h48.73v76.53h.74v-.75.75h.75V61.34c0-.2-.08-.39-.22-.53s-.33-.22-.53-.22H35.98c-.19 0-.39.08-.53.22s-.21.33-.21.53v77.27c0 .2.07.39.21.53.14.14.34.22.53.22H86.2c.2 0 .39-.08.53-.22s.22-.33.22-.53h-.75" fill="#1B1A18"/><path d="M61.09 79.69c-11.2 0-20.28 9.08-20.28 20.28 0 11.21 9.08 20.29 20.28 20.29 11.21 0 20.29-9.08 20.29-20.29 0-11.2-9.08-20.28-20.29-20.28" fill="#FFF"/><path d="M61.09 79.69v-.75c-11.61 0-21.03 9.42-21.03 21.03 0 11.62 9.42 21.04 21.03 21.04 11.62 0 21.03-9.42 21.04-21.04-.01-11.61-9.42-21.03-21.04-21.03v1.49c5.4 0 10.28 2.19 13.82 5.73 3.54 3.54 5.72 8.42 5.72 13.81 0 5.4-2.18 10.28-5.72 13.82-3.54 3.54-8.42 5.72-13.82 5.72-5.39 0-10.27-2.18-13.81-5.72-3.54-3.54-5.73-8.42-5.73-13.82 0-5.39 2.19-10.27 5.73-13.81 3.54-3.54 8.42-5.73 13.81-5.73v-.74" fill="#1B1A18"/><path d="M107.29 81.34c-3.43-3.75-5.52-8.53-5.52-13.61V51.04c0-.51-.2-.98-.52-1.33-.25-.27-.4-.62-.4-.98v-2.82c0-.79-.64-1.43-1.43-1.43H86.7c-.79 0-1.44.64-1.44 1.43v2.82c0 .36-.15.71-.4.98-.32.35-.51.82-.51 1.33v16.69c0 5.08-2.09 9.86-5.52 13.61-3.13 3.42-5.04 7.97-5.04 12.97v53.74c0 3.96 3.21 7.17 7.17 7.17h24.2c3.96 0 7.17-3.21 7.17-7.17V94.31c0-5-1.91-9.55-5.04-12.97" fill="#3D897B"/><path d="M107.29 81.34l.55-.51c-3.32-3.63-5.33-8.23-5.33-13.1V51.04c0-.71-.27-1.35-.71-1.83-.14-.16-.2-.32-.2-.48v-2.82c0-1.2-.98-2.18-2.18-2.18H86.7c-1.21 0-2.18.98-2.18 2.18v2.82c0 .16-.07.32-.21.48-.44.48-.71 1.12-.71 1.83v16.69c0 4.87-2 9.47-5.32 13.1-3.25 3.55-5.24 8.29-5.24 13.48v53.74c0 4.38 3.54 7.92 7.92 7.92h24.2c4.37 0 7.91-3.54 7.91-7.92V94.31c0-5.19-1.98-9.93-5.23-13.48l-.55.51-.55.5c3.01 3.29 4.84 7.66 4.84 12.47v53.74c0 1.78-.72 3.38-1.88 4.55-1.16 1.16-2.77 1.88-4.54 1.88h-24.2c-1.78 0-3.38-.72-4.54-1.88-1.17-1.17-1.89-2.77-1.89-4.55V94.31c0-4.81 1.84-9.18 4.85-12.47 3.54-3.87 5.71-8.82 5.71-14.11V51.04c0-.32.12-.6.32-.82.36-.39.6-.92.6-1.49v-2.82c0-.38.31-.69.69-.69h12.72c.38 0 .68.31.68.69v2.82c0 .57.24 1.1.6 1.49.2.22.32.5.32.82v16.69c0 5.29 2.18 10.24 5.72 14.11l.55-.5" fill="#1B1A18"/><path d="M100.85 47.98h-9.93c-.41 0-.75.33-.75.75 0 .41.34.74.75.74h9.93c.41 0 .75-.33.75-.74 0-.42-.34-.75-.75-.75" fill="#1B1A18"/><path d="M84.35 53.75v13.98c0 5.08-2.09 9.86-5.52 13.61-3.13 3.42-5.04 7.97-5.04 12.97v53.74c0 3.96 3.21 7.17 7.17 7.17h9.96V67.91c0-8.33-2.43-11.5-6.57-14.16" fill="#2D655B"/><path d="M84.35 53.75h-.75v13.98c0 4.87-2 9.47-5.32 13.1-3.25 3.55-5.24 8.29-5.24 13.48v53.74c0 4.38 3.54 7.92 7.92 7.92h9.96c.2 0 .39-.08.53-.22s.21-.33.21-.53V67.91c0-4.23-.61-7.23-1.81-9.55-1.2-2.31-2.97-3.87-5.1-5.24-.23-.15-.52-.16-.76-.03s-.39.38-.39.66h.75l-.41.63c2.02 1.3 3.53 2.65 4.58 4.67 1.05 2.02 1.65 4.77 1.65 8.86v87.31h.75v-.74h-9.96c-1.78 0-3.38-.72-4.54-1.88-1.17-1.17-1.89-2.77-1.89-4.55V94.31c0-4.81 1.84-9.18 4.85-12.47 3.54-3.87 5.71-8.82 5.71-14.11V53.75h-.74l-.41.63.41-.63" fill="#1B1A18"/><path d="M84.34 67.91c-.05 5.02-2.13 9.72-5.51 13.43-3.13 3.42-5.04 7.97-5.04 12.97v49.1h17.13v-75.5h-6.58" fill="#21403A"/><path d="M84.34 67.91h-.75c-.05 4.8-2.04 9.34-5.31 12.92-3.25 3.55-5.24 8.29-5.24 13.48v49.1c0 .2.08.39.22.53s.33.22.53.22h17.13c.2 0 .39-.08.53-.22s.21-.33.21-.53v-75.5c0-.19-.07-.38-.21-.52-.14-.14-.33-.22-.53-.22h-6.58c-.41 0-.74.33-.75.74h.75v.75h6.58v-.75h-.75v75.5h.75v-.74H74.53V94.31c0-4.81 1.84-9.18 4.85-12.47 3.49-3.82 5.65-8.7 5.7-13.92l-.74-.01v.75-.75" fill="#1B1A18"/></g></svg>